<?xml version="1.0" standalone="no"?>
<!DOCTYPE svg PUBLIC "-//W3C//DTD SVG 20010904//EN"
 "http://www.w3.org/TR/2001/REC-SVG-20010904/DTD/svg10.dtd">
<svg version="1.0" xmlns="http://www.w3.org/2000/svg"
 width="868.000000pt" height="868.000000pt" viewBox="0 0 868.000000 868.000000"
 preserveAspectRatio="xMidYMid meet">
<metadata>
Created by potrace 1.14, written by Peter Selinger 2001-2017
</metadata>
<g transform="translate(0.000000,868.000000) scale(0.100000,-0.100000)"
fill="#000000" stroke="none">
<path d="M2160 7573 c0 -4 -15 -8 -32 -7 -40 1 -116 -25 -142 -48 -11 -10 -26
-18 -35 -18 -8 0 -12 -3 -8 -6 8 -9 -53 -74 -70 -74 -8 0 -11 -5 -8 -10 4 -6
3 -10 -2 -8 -4 1 -24 -2 -43 -7 -19 -4 -62 -9 -95 -10 -33 -2 -60 -4 -60 -5 0
-1 -9 -3 -19 -5 -11 -2 -31 -7 -45 -10 -14 -4 -28 -7 -31 -7 -16 -1 -108 -42
-132 -59 -15 -11 -28 -18 -28 -15 0 7 -42 -29 -97 -81 -18 -18 -30 -33 -26
-33 5 0 3 -4 -2 -8 -19 -13 -71 -142 -58 -142 3 0 0 -7 -7 -15 -9 -10 -9 -15
-1 -15 6 0 11 -13 11 -30 0 -47 -63 -71 -75 -27 -11 38 -28 67 -37 61 -4 -3
-8 0 -8 6 0 11 -57 9 -78 -4 -7 -4 -17 -4 -22 -1 -6 4 -9 1 -8 -7 2 -7 -3 -12
-10 -10 -7 1 -23 -3 -35 -10 -12 -7 -25 -11 -29 -10 -5 1 -8 -3 -8 -9 0 -5 -4
-8 -9 -5 -9 6 -72 -38 -84 -59 -4 -9 -12 -13 -18 -10 -5 4 -9 0 -9 -8 0 -8 -7
-17 -15 -21 -8 -3 -14 -9 -13 -13 1 -4 -4 -19 -12 -33 -16 -28 -17 -32 -25
-80 -3 -19 -8 -40 -10 -47 -2 -7 0 -15 6 -18 5 -4 7 -10 5 -14 -8 -12 23 -51
40 -51 8 0 14 -4 14 -9 0 -5 8 -8 18 -6 9 2 22 4 27 4 6 1 22 11 37 24 47 38
103 77 111 77 4 -1 15 6 23 15 9 8 20 13 25 10 5 -4 9 -1 9 4 0 6 3 10 8 9 10
-3 50 10 92 30 19 9 44 17 54 19 11 2 24 7 30 12 17 13 89 35 110 33 11 0 27
3 37 8 12 7 19 6 22 -3 4 -9 7 -9 14 0 10 14 63 20 81 9 7 -4 12 -13 12 -21 0
-12 -20 -20 -74 -31 -10 -2 -35 -8 -55 -14 -36 -11 -52 -18 -101 -38 -46 -19
-65 -25 -72 -24 -5 1 -8 -2 -8 -7 0 -5 -13 -12 -30 -16 -17 -4 -30 -11 -30
-17 0 -6 -3 -9 -6 -5 -4 3 -13 -1 -21 -9 -8 -8 -19 -12 -24 -9 -5 4 -9 2 -9
-3 0 -5 -13 -15 -30 -22 -16 -7 -30 -17 -30 -22 0 -5 -4 -7 -9 -4 -5 3 -11 -1
-15 -9 -3 -8 -10 -15 -16 -15 -20 0 -182 -156 -188 -181 -2 -8 -8 -15 -13 -17
-5 -2 -9 -10 -9 -18 0 -8 -4 -14 -10 -14 -5 0 -10 -6 -10 -12 0 -7 -7 -26 -16
-43 -16 -31 -22 -50 -31 -97 -3 -15 -10 -25 -15 -22 -6 4 -6 -2 1 -13 6 -11 8
-23 5 -25 -8 -9 -9 -92 -1 -106 5 -6 6 -16 2 -21 -3 -5 0 -13 6 -16 5 -4 8
-13 5 -21 -3 -8 -1 -14 4 -14 6 0 10 -6 10 -13 0 -19 24 -67 33 -67 5 0 6 4 2
9 -3 5 -1 12 5 16 6 4 8 11 5 16 -4 5 -1 9 5 9 6 0 8 5 5 10 -3 6 -1 10 4 10
6 0 10 4 9 9 -5 15 42 71 58 71 8 0 13 4 10 9 -7 11 20 22 38 15 15 -6 14 -38
-3 -58 -23 -28 -47 -186 -28 -186 4 0 6 -3 5 -7 -8 -28 91 -153 120 -153 6 0
12 -3 14 -7 3 -8 73 -44 93 -49 6 -1 24 -8 40 -15 17 -6 35 -13 40 -13 6 -1
24 -5 40 -9 17 -3 42 -9 57 -11 15 -3 32 -7 38 -11 5 -3 10 -1 10 6 0 8 4 8
13 1 7 -6 25 -9 40 -8 15 2 27 0 27 -4 0 -3 23 -5 50 -4 28 1 50 -3 50 -8 0
-7 5 -6 14 1 7 6 21 8 31 5 9 -4 36 -7 59 -8 44 -1 55 -20 26 -44 -12 -10 -10
-11 15 -6 17 4 32 10 35 13 3 3 14 7 25 8 27 3 70 11 70 13 0 1 19 3 43 5 23
2 42 -1 42 -7 0 -5 4 -7 9 -4 5 3 12 -1 15 -10 8 -22 8 -26 -4 -19 -5 3 -10 2
-10 -2 0 -5 -12 -10 -26 -11 -15 -1 -33 -7 -40 -12 -9 -8 -14 -7 -20 1 -5 9
-10 9 -18 -2 -11 -14 -27 -20 -56 -23 -8 0 -19 -6 -25 -12 -5 -7 -22 -15 -38
-18 -15 -4 -36 -15 -46 -25 -11 -11 -22 -17 -25 -14 -3 4 -6 0 -6 -7 0 -7 -2
-11 -5 -8 -3 3 -20 -8 -37 -24 -17 -16 -28 -31 -25 -35 4 -3 0 -11 -8 -17 -8
-6 -16 -28 -18 -48 -2 -21 -6 -40 -9 -44 -3 -3 0 -25 8 -50 8 -27 9 -44 3 -44
-6 0 -7 -4 -4 -10 6 -10 5 -11 -32 -15 -25 -3 -57 29 -61 63 -3 23 -32 84 -32
68 0 -5 -6 -4 -12 2 -11 8 -58 10 -65 2 -2 -1 -6 -3 -10 -5 -52 -14 -63 -19
-63 -27 0 -5 -4 -7 -9 -3 -5 3 -17 -2 -25 -11 -9 -8 -16 -12 -16 -8 0 4 -11
-3 -25 -16 -14 -13 -25 -19 -25 -14 0 5 -9 -8 -20 -29 -23 -43 -22 -70 4 -110
10 -15 20 -39 21 -52 2 -13 6 -28 9 -34 4 -5 2 -12 -3 -15 -5 -3 -12 -17 -15
-32 -7 -25 -14 -37 -48 -75 -10 -10 -15 -19 -10 -19 4 0 -1 -5 -10 -11 -10 -5
-18 -17 -18 -25 0 -8 -4 -12 -10 -9 -5 3 -10 -1 -10 -9 0 -23 4 -31 14 -28 4
1 14 -3 22 -9 8 -6 14 -7 14 -2 0 6 12 9 28 8 35 -2 85 14 95 32 5 7 13 11 18
7 5 -3 8 -2 7 3 -4 12 40 64 72 86 27 19 70 23 70 7 0 -5 -16 -27 -35 -47 -19
-20 -35 -43 -35 -51 0 -7 -4 -10 -10 -7 -6 3 -7 -1 -4 -10 4 -8 -1 -26 -10
-40 -9 -14 -14 -25 -11 -25 3 0 0 -6 -7 -14 -7 -8 -15 -14 -18 -14 -3 0 -8 -1
-12 -2 -5 -1 -12 -4 -18 -5 -5 -1 -13 -4 -17 -5 -17 -6 -93 -5 -93 1 0 8 -131
4 -176 -5 -17 -3 -44 -13 -60 -21 -16 -8 -35 -15 -41 -15 -7 0 -13 -5 -13 -11
0 -5 -4 -7 -10 -4 -5 3 -10 1 -10 -4 0 -6 -4 -11 -10 -11 -13 0 -50 -37 -50
-51 0 -5 -4 -7 -10 -4 -5 3 -10 -1 -10 -9 0 -9 -4 -16 -9 -16 -5 0 -12 -7 -15
-16 -4 -10 -2 -13 7 -8 9 6 8 4 -1 -8 -19 -24 -25 -68 -10 -69 7 -1 20 -2 28
-3 8 -1 26 2 40 7 14 5 34 10 45 12 11 2 38 6 60 10 54 10 135 13 135 6 0 -3
19 -7 43 -8 50 -3 68 -6 82 -14 14 -8 68 -23 78 -21 4 1 7 -3 7 -9 0 -5 4 -8
9 -5 5 4 11 2 13 -2 1 -5 32 -24 68 -43 36 -18 68 -37 71 -42 3 -4 16 -9 27
-10 12 -1 22 -4 22 -8 0 -9 56 -26 87 -27 20 -1 41 29 35 51 -1 4 3 7 8 7 6 0
10 7 10 15 0 16 39 36 53 28 4 -3 13 0 20 5 7 5 22 8 35 7 13 -1 25 2 28 7 3
4 9 6 14 3 4 -3 23 1 41 9 19 8 36 13 39 13 3 -1 16 8 30 21 13 12 28 22 32
22 5 0 7 4 4 9 -4 5 -2 11 4 13 5 1 14 17 19 33 10 36 -12 92 -44 109 -10 6
-25 16 -32 23 -7 6 -22 14 -32 18 -24 7 -21 36 5 45 29 10 184 6 192 -5 4 -6
14 -11 22 -13 8 -2 17 -8 18 -13 2 -5 8 -7 13 -3 5 3 9 1 9 -5 0 -10 47 -61
56 -61 8 0 30 23 33 35 9 28 14 34 24 28 6 -4 7 -1 2 7 -4 7 -2 16 6 21 12 7
12 9 0 9 -10 0 -11 3 -2 14 9 11 7 18 -13 34 -14 10 -22 22 -19 26 3 3 -1 6
-10 6 -9 0 -17 5 -17 11 0 5 -20 30 -44 54 -24 24 -49 53 -56 64 -6 12 -15 19
-21 16 -5 -4 -9 -3 -9 2 0 4 -20 31 -45 58 -24 28 -45 54 -45 58 0 5 -7 15
-15 24 -8 8 -13 19 -10 24 4 5 1 9 -5 9 -6 0 -9 21 -6 58 5 65 41 140 86 180
17 15 30 31 30 37 0 5 -5 3 -10 -5 -6 -10 -10 -11 -10 -2 0 6 -11 12 -24 12
-35 0 -49 22 -35 54 7 14 20 28 31 31 10 4 18 11 18 17 0 6 3 9 6 5 8 -8 85
33 91 49 3 8 9 12 13 9 13 -8 50 35 52 59 4 65 3 106 -4 106 -4 0 -8 7 -8 15
0 8 -4 15 -10 15 -5 0 -10 7 -10 16 0 8 -4 12 -10 9 -5 -3 -10 0 -10 7 0 15
-72 50 -80 39 -3 -4 -15 -6 -27 -5 -13 1 -23 -2 -23 -5 0 -10 -76 -42 -102
-43 -13 -1 -29 -6 -35 -11 -7 -5 -13 -7 -13 -4 0 3 -15 1 -32 -4 -47 -15 -108
-17 -108 -5 0 6 -4 6 -8 -1 -8 -12 -20 -12 -104 2 -18 3 -44 8 -58 10 -14 2
-38 9 -55 15 -16 6 -31 11 -32 11 -9 -1 -40 15 -52 27 -13 13 -12 16 4 28 10
7 22 11 26 8 5 -3 9 -1 9 4 0 5 11 7 25 4 34 -6 32 15 -2 35 -33 18 -86 89
-89 118 -1 11 10 40 24 65 15 25 25 50 23 55 -1 6 0 7 4 3 4 -3 19 7 34 23 15
16 32 25 36 21 5 -4 5 1 2 11 -4 10 -3 16 2 12 5 -3 26 11 47 31 32 29 38 42
38 75 0 38 -30 93 -50 95 -17 1 -64 27 -64 36 0 4 -3 7 -8 5 -4 -1 -8 1 -10 6
-5 15 -2 24 11 25 14 1 51 10 55 12 1 2 10 3 20 4 11 0 27 8 37 16 11 8 16 10
11 3 -5 -9 -2 -11 8 -7 9 3 16 10 16 16 0 5 4 7 9 3 6 -3 14 3 20 12 8 14 11
15 11 3 0 -12 3 -11 11 3 5 9 17 17 24 17 8 0 15 4 15 9 0 5 19 23 42 40 23
17 39 31 35 31 -3 0 12 18 34 40 22 22 36 40 31 40 -6 0 -8 8 -6 18 2 9 1 23
-4 29 -10 16 -73 23 -89 10 -7 -5 -13 -6 -13 -2 0 4 -8 1 -17 -6 -14 -12 -15
-12 -9 -1 7 11 4 12 -12 3 -22 -12 -80 -12 -87 0 -4 5 44 32 52 30 2 0 19 7
38 15 20 8 40 12 45 9 6 -4 10 -2 10 3 0 9 94 29 113 24 4 -1 7 2 7 7 0 5 14
7 30 5 20 -4 30 -1 30 8 0 9 3 9 10 -2 6 -10 10 -11 10 -2 0 6 7 12 15 12 8 0
15 7 15 15 0 8 12 25 27 38 14 12 34 29 43 37 9 8 22 16 28 18 7 1 17 3 23 5
6 1 13 -8 15 -21 2 -14 0 -21 -6 -17 -5 3 -10 1 -10 -5 0 -7 -21 -33 -47 -59
-54 -54 -77 -81 -68 -81 4 0 -3 -13 -15 -30 -12 -16 -18 -30 -13 -30 4 0 2 -4
-6 -9 -8 -5 -15 -31 -18 -63 -3 -47 0 -59 21 -81 22 -24 28 -26 53 -16 15 6
36 18 47 27 10 9 21 17 25 17 10 0 8 49 -3 64 -9 12 -8 13 3 6 10 -6 12 -4 5
6 -11 18 -12 79 -1 79 5 0 5 5 2 10 -3 6 -2 10 4 10 6 0 8 6 5 13 -3 8 2 20
11 27 8 7 15 19 15 26 0 8 5 14 11 14 5 0 9 3 7 8 -2 4 9 19 24 34 15 15 28
24 28 21 0 -3 7 0 15 7 8 6 19 9 25 5 5 -3 10 -1 10 4 0 6 9 11 19 11 11 0 21
5 23 11 2 5 10 11 18 13 8 1 24 7 36 14 26 14 110 31 172 35 6 0 12 3 12 7 0
3 12 5 28 5 15 -1 32 3 39 8 7 5 19 5 27 0 20 -11 3 -33 -51 -63 -49 -27 -59
-45 -38 -66 8 -9 15 -12 15 -8 0 3 7 1 15 -6 8 -7 15 -9 15 -6 0 4 6 1 13 -6
11 -10 7 -17 -22 -42 -78 -65 -129 -126 -118 -139 1 -2 -3 -10 -9 -18 -15 -18
-9 -70 8 -80 7 -5 9 -9 5 -9 -15 0 68 -70 91 -76 12 -4 22 -9 22 -13 0 -3 10
-7 23 -8 34 -3 51 -8 66 -17 9 -6 12 -5 8 1 -5 7 9 10 39 9 25 -1 47 1 50 5 2
4 13 6 24 4 11 -2 20 0 20 4 0 5 13 11 30 14 58 12 97 68 103 149 3 33 147
126 147 95 0 -8 4 -6 11 3 8 11 9 6 4 -20 -18 -93 -17 -104 9 -129 15 -14 41
-26 59 -27 17 -1 32 -3 32 -4 0 -1 24 -3 53 -5 32 -2 52 0 52 7 0 7 5 6 14 -1
11 -9 20 -10 35 -1 12 6 21 8 21 5 0 -3 10 1 23 10 13 8 27 12 30 8 4 -3 7 -1
7 5 0 10 55 28 73 24 4 -1 7 3 7 9 0 5 5 7 10 4 6 -3 13 1 16 9 3 9 10 13 15
10 5 -3 6 2 3 11 -4 9 -13 14 -20 11 -8 -3 -14 -1 -14 5 0 6 -9 8 -21 4 -16
-5 -19 -4 -14 6 6 9 4 11 -8 6 -9 -3 -18 0 -21 9 -3 8 -12 14 -20 14 -13 0
-26 25 -31 61 -1 11 4 16 14 14 9 -2 16 -4 16 -6 0 -1 14 -2 30 -3 35 -2 52
12 58 45 14 85 59 102 71 27 8 -47 32 -98 47 -98 6 0 7 -4 4 -10 -3 -5 1 -10
10 -10 9 0 13 -4 10 -10 -3 -5 1 -10 10 -10 9 0 29 -7 45 -15 28 -15 29 -17
24 -74 -5 -54 -4 -60 20 -78 14 -11 22 -23 19 -27 -6 -5 12 -10 30 -7 4 0 7
-4 7 -10 0 -5 5 -7 10 -4 6 3 10 2 10 -3 0 -5 10 -8 23 -8 12 1 28 -2 35 -7 8
-6 12 -5 12 3 0 9 3 10 13 1 8 -6 16 -8 19 -5 6 5 53 16 76 17 6 0 12 4 12 9
0 5 4 7 9 3 6 -3 14 3 20 12 6 10 11 14 11 10 0 -5 15 8 34 28 21 21 32 43 29
51 -3 8 3 22 13 30 11 9 13 13 7 9 -8 -4 -11 -1 -8 7 3 7 23 14 46 14 23 1 47
8 55 16 15 15 26 88 13 88 -4 0 -9 9 -12 21 -3 12 -10 18 -16 15 -5 -3 -16 1
-25 9 -9 9 -34 16 -62 17 -52 1 -94 29 -76 51 10 12 5 26 -47 127 -40 76 -41
79 -41 95 0 8 -5 15 -11 15 -5 0 -7 5 -4 10 3 6 -1 13 -9 16 -9 3 -16 11 -16
18 0 13 -35 46 -50 46 -6 0 -10 5 -10 10 0 6 -9 10 -19 10 -11 0 -21 4 -23 9
-3 9 -44 20 -93 25 -11 1 -25 -2 -32 -6 -6 -5 -14 -5 -18 2 -3 6 -12 7 -18 3
-7 -4 -14 -8 -17 -9 -72 -13 -106 -18 -112 -16 -5 1 -8 -3 -8 -9 0 -5 -4 -8
-8 -5 -4 2 -27 -4 -51 -15 -51 -22 -77 -24 -84 -6 -5 13 20 35 36 33 5 -1 13
7 18 16 5 9 23 19 39 23 17 4 30 11 30 15 0 5 7 7 15 4 9 -4 18 1 22 12 4 11
13 24 21 29 8 6 15 34 17 64 1 28 5 55 8 58 11 10 -17 53 -34 53 -10 0 -20 4
-24 9 -3 6 -13 10 -23 9 -9 0 -37 4 -62 9 -61 12 -189 7 -200 -9 -3 -4 -18 -9
-33 -12 -15 -2 -40 -14 -56 -25 -15 -11 -31 -18 -35 -14 -3 3 -6 1 -6 -6 0 -7
-4 -9 -10 -6 -5 3 -10 2 -10 -3 0 -17 -69 -4 -100 18 -17 12 -30 25 -30 30 0
4 -8 10 -17 14 -10 3 -25 10 -33 15 -25 16 -70 31 -105 34 -11 2 -25 6 -30 9
-6 4 -17 3 -25 -2 -9 -5 -19 -5 -27 2 -9 7 -13 7 -13 -2 0 -9 -3 -10 -13 -1
-8 6 -16 9 -18 6 -3 -2 -19 -6 -37 -9 -18 -4 -45 -8 -62 -11 -26 -5 -77 -22
-145 -50 -11 -5 -24 -9 -28 -9 -4 -1 -11 -5 -15 -11 -4 -5 -11 -10 -17 -11
-18 -1 -89 -35 -109 -52 -11 -10 -16 -11 -12 -4 10 17 -1 15 -22 -5 -65 -62
-84 -72 -93 -46 -5 12 1 25 19 41 14 12 29 22 34 22 4 0 7 3 6 8 -5 23 46 92
70 92 6 0 12 5 12 11 0 5 4 8 9 4 6 -3 14 3 20 12 6 10 11 15 11 10 0 -11 60
22 60 33 0 5 7 7 15 4 9 -4 15 0 15 7 0 10 3 11 8 3 5 -9 11 -8 20 2 11 12 11
15 0 18 -7 2 -28 9 -47 15 -19 6 -36 9 -39 6 -3 -2 -13 0 -23 6 -11 5 -19 6
-19 2z m684 -391 c20 -18 36 -30 36 -26 0 4 7 1 15 -6 8 -6 19 -9 25 -5 5 3
10 2 10 -4 0 -12 51 7 62 24 4 5 10 2 14 -8 3 -10 5 -19 3 -21 -2 -1 -23 -17
-45 -34 -23 -18 -46 -32 -52 -32 -5 0 -12 -7 -16 -15 -3 -8 -13 -15 -21 -15
-9 0 -14 -3 -12 -7 3 -5 -6 -16 -19 -26 -26 -19 -30 -16 -37 30 -2 12 -6 26
-10 29 -4 4 -7 20 -7 36 0 15 -5 28 -11 28 -5 0 -8 4 -5 8 3 5 -6 25 -19 45
-28 40 -31 53 -12 60 15 6 54 -17 101 -61z m-1133 -41 c-10 -15 -29 -55 -41
-89 -13 -35 -29 -66 -37 -69 -7 -3 -11 -8 -9 -12 6 -9 -55 -50 -85 -57 -54
-13 -89 -12 -89 2 0 16 66 84 74 76 3 -3 6 -1 6 4 0 14 46 64 59 64 7 0 9 5 6
10 -3 6 -3 10 2 10 4 0 9 11 9 25 1 14 -2 22 -8 19 -5 -3 -4 3 4 15 13 22 27
29 75 37 15 3 30 7 32 10 3 2 8 -1 12 -8 4 -6 -1 -23 -10 -37z"/>
<path d="M5330 7377 c0 -5 -6 -7 -14 -4 -17 7 -126 -47 -148 -74 -10 -12 -18
-17 -18 -13 0 5 -14 -7 -30 -26 -16 -19 -30 -30 -30 -25 0 6 -4 4 -8 -3 -9
-13 -120 -23 -127 -12 -7 11 -78 2 -135 -15 -24 -7 -58 -29 -55 -35 3 -4 -3
-10 -13 -12 -9 -3 -27 -26 -40 -51 -13 -26 -28 -47 -33 -47 -6 0 -7 -4 -4 -10
3 -5 1 -10 -5 -10 -6 0 -42 -15 -80 -34 -63 -32 -90 -50 -126 -84 -8 -7 -14
-11 -14 -7 0 3 -12 -1 -27 -9 -31 -15 -153 -18 -153 -3 0 5 -6 7 -14 4 -7 -3
-19 0 -26 6 -10 9 -11 7 -5 -13 8 -30 34 -52 52 -46 7 3 15 1 18 -4 4 -6 14
-6 27 1 11 6 18 7 15 2 -4 -6 17 -9 51 -8 31 1 61 0 67 -4 16 -9 45 -8 45 1 0
5 6 6 13 1 17 -10 32 -13 104 -15 57 -2 64 0 87 27 16 18 22 33 16 40 -5 5
-10 24 -12 40 -2 17 -7 33 -13 37 -17 12 -5 69 20 94 13 12 26 20 30 16 4 -4
10 -7 14 -7 3 0 17 -10 30 -22 13 -12 28 -20 33 -17 4 3 8 1 8 -4 0 -4 26 -7
58 -5 90 6 111 8 118 16 4 4 13 2 20 -4 8 -7 14 -7 19 1 5 8 11 8 21 -1 19
-15 18 -25 -6 -49 -38 -38 -80 -114 -67 -122 9 -6 9 -8 0 -8 -7 0 -11 -14 -10
-35 1 -19 6 -35 11 -35 5 0 7 -3 3 -6 -10 -10 64 -78 101 -93 17 -7 32 -17 32
-21 0 -5 11 -7 25 -5 14 1 27 -1 30 -5 7 -11 137 -3 170 11 17 7 33 12 38 11
4 -1 7 3 7 9 0 5 4 8 10 4 8 -5 48 11 60 26 3 3 13 8 23 12 11 4 15 12 11 18
-4 8 -3 9 5 5 6 -4 14 0 17 8 3 9 9 14 13 11 8 -4 41 55 48 85 4 16 6 80 2 96
-6 31 4 73 21 92 24 25 73 112 64 112 -4 0 -1 6 5 14 12 14 10 42 -5 81 -10
26 -56 74 -71 75 -7 0 -13 4 -13 9 0 10 -39 27 -52 23 -5 -1 -8 2 -8 6 0 9
-19 12 -122 16 -43 1 -78 -2 -78 -7z"/>
<path d="M6730 6763 c0 -4 -19 -9 -42 -10 -24 -2 -44 -7 -46 -13 -2 -6 -8 -8
-13 -4 -5 3 -23 -1 -39 -10 -17 -8 -27 -10 -24 -4 4 6 -2 6 -15 -1 -11 -7 -21
-9 -21 -5 0 3 -7 1 -15 -6 -8 -7 -15 -9 -15 -5 0 4 -6 3 -12 -2 -7 -6 -21 -9
-30 -8 -10 2 -18 0 -18 -4 0 -4 -19 -8 -42 -8 -24 -1 -43 -2 -43 -3 0 -11
-245 -19 -267 -8 -10 5 -18 3 -21 -5 -3 -6 -6 -7 -6 -1 -2 17 -128 3 -185 -21
-20 -9 -36 -13 -36 -9 0 3 -7 -2 -16 -10 -8 -9 -20 -14 -25 -11 -5 4 -9 1 -9
-4 0 -6 -7 -11 -15 -11 -8 0 -15 -5 -15 -11 0 -5 -4 -8 -9 -4 -5 3 -15 0 -23
-7 -17 -16 -87 -58 -110 -65 -10 -3 -18 -9 -18 -14 0 -5 -16 -25 -36 -45 -33
-32 -38 -34 -52 -21 -13 13 -13 20 -2 46 7 17 17 31 23 31 7 0 8 3 1 10 -12
12 -144 20 -144 9 0 -4 -8 -6 -17 -4 -10 1 -24 -2 -30 -8 -7 -5 -13 -6 -13 -2
0 5 -10 0 -22 -11 -12 -10 -18 -13 -14 -6 10 17 -74 -42 -101 -71 -12 -13 -25
-36 -28 -50 -4 -15 -10 -27 -14 -27 -6 0 -5 -67 1 -107 1 -6 27 -27 59 -45 32
-18 59 -39 59 -47 0 -8 3 -11 6 -8 4 3 29 -16 55 -43 47 -48 69 -61 69 -40 0
5 3 9 8 9 35 -6 56 32 43 78 -9 31 11 60 45 66 10 2 30 9 44 17 14 8 28 14 32
15 3 0 10 3 14 8 4 4 16 0 26 -9 20 -19 7 -47 -18 -37 -8 3 -14 0 -14 -7 0 -6
-4 -9 -8 -6 -4 2 -12 -15 -18 -40 -8 -35 -7 -51 4 -74 8 -16 18 -27 22 -25 5
3 11 1 15 -5 4 -6 10 -8 15 -5 5 3 11 1 15 -5 6 -10 36 -6 80 10 11 4 25 9 30
10 6 1 19 7 30 13 24 13 41 18 75 20 14 1 30 5 35 9 6 3 23 8 40 9 23 3 30 0
33 -15 2 -10 0 -16 -6 -12 -5 3 -15 -1 -22 -9 -7 -8 -17 -15 -22 -15 -5 0 -18
-9 -30 -20 -12 -10 -25 -17 -30 -14 -4 3 -8 1 -8 -4 0 -5 -20 -23 -44 -41 -45
-32 -109 -91 -99 -91 3 0 0 -7 -7 -15 -16 -19 -16 -69 0 -87 5 -7 18 -22 28
-33 20 -23 62 -32 62 -14 0 7 3 10 6 7 3 -3 21 10 40 30 19 19 34 32 34 29 0
-3 11 4 24 16 14 13 48 34 78 47 29 14 55 27 58 30 6 6 67 12 135 14 28 0 53
5 56 9 3 5 14 0 24 -9 14 -14 15 -19 4 -23 -8 -2 -18 -10 -22 -17 -4 -8 -13
-14 -18 -14 -14 0 -137 -123 -141 -141 -2 -8 -6 -17 -11 -20 -22 -16 -27 -115
-8 -137 9 -10 17 -24 19 -32 5 -20 65 -69 77 -63 5 4 7 3 3 -2 -4 -4 -2 -13 5
-19 12 -11 66 -39 79 -40 3 -1 10 -4 14 -8 4 -5 16 -8 26 -8 10 0 18 -4 18
-10 0 -5 3 -9 8 -9 4 1 10 0 15 -1 4 -1 12 -4 17 -5 6 -1 11 -3 13 -5 3 -2 23
-6 64 -13 17 -3 36 -8 42 -11 5 -4 13 -2 16 4 4 7 11 7 18 2 7 -5 21 -8 32 -5
60 12 85 12 85 -3 0 -7 -4 -14 -9 -14 -4 0 -22 -14 -40 -30 -17 -17 -31 -27
-31 -24 0 4 -10 -6 -22 -22 -13 -16 -35 -42 -50 -59 -15 -16 -28 -36 -28 -42
0 -7 -4 -13 -10 -13 -5 0 -10 -7 -10 -15 0 -8 -5 -15 -11 -15 -5 0 -8 -4 -5
-9 3 -5 -1 -14 -9 -21 -8 -7 -12 -16 -9 -21 3 -5 0 -9 -6 -9 -6 0 -8 -4 -5
-10 3 -5 1 -10 -4 -10 -6 0 -10 -3 -9 -7 0 -5 -2 -15 -5 -23 -21 -51 -30 -77
-31 -90 -1 -8 -5 -20 -9 -26 -4 -7 -9 -31 -11 -55 -3 -27 -9 -43 -16 -41 -6 1
-9 -2 -6 -7 4 -5 2 -13 -4 -16 -8 -5 -7 -11 1 -21 6 -8 7 -14 2 -14 -4 0 -8
-26 -7 -57 1 -32 3 -58 4 -58 1 0 4 -9 6 -20 15 -77 24 -105 36 -105 5 0 8 -6
5 -12 -2 -7 8 -25 24 -40 15 -14 25 -29 21 -32 -3 -3 2 -6 11 -6 9 0 17 -4 17
-10 0 -5 7 -10 15 -10 8 0 15 -5 15 -11 0 -5 5 -7 10 -4 6 3 10 2 10 -4 0 -5
11 -8 25 -6 14 1 25 -1 25 -5 0 -4 11 -10 25 -12 14 -3 25 -2 25 1 0 3 15 6
32 5 18 -1 36 4 40 10 6 8 8 8 8 -1 0 -8 16 -5 50 9 28 11 50 25 50 30 0 5 5
6 10 3 6 -3 10 -1 10 5 0 6 4 9 9 5 5 -3 12 3 15 12 7 22 43 45 73 49 18 2 21
-2 16 -24 -2 -15 -6 -45 -8 -67 -1 -22 -4 -41 -5 -42 -1 -2 -2 -20 -2 -40 0
-21 -4 -43 -9 -48 -4 -6 -10 -22 -13 -35 -9 -48 -42 -127 -59 -144 -9 -10 -17
-22 -17 -27 0 -5 -7 -9 -16 -9 -8 0 -12 -5 -9 -10 4 -6 -11 -18 -32 -27 -38
-16 -47 -19 -80 -27 -10 -2 -17 -9 -15 -16 2 -7 -5 -21 -14 -31 -16 -18 -16
-19 10 -19 15 0 37 -5 48 -11 16 -8 19 -8 13 1 -6 9 -2 9 14 1 11 -7 21 -8 21
-4 0 5 12 10 26 11 15 1 32 6 38 11 6 5 19 7 29 6 9 -2 15 0 12 5 -3 4 18 19
45 31 27 13 52 32 55 41 4 9 14 20 23 23 18 6 72 51 72 59 0 3 14 19 30 34 17
16 30 34 30 41 0 6 4 11 8 11 9 0 47 62 44 73 -1 4 2 7 7 7 5 0 14 14 21 30 7
17 17 30 22 30 6 0 8 7 4 15 -3 8 -1 15 5 15 6 0 8 4 4 9 -3 5 -1 12 5 16 6 4
8 11 5 16 -4 5 0 12 8 15 8 3 14 13 12 22 -1 9 2 22 7 28 5 7 8 16 7 20 -1 5
0 12 1 17 5 13 6 22 15 62 4 22 10 49 12 60 9 46 12 63 17 113 3 29 8 57 11
62 3 4 0 10 -6 12 -7 2 -7 12 0 31 6 15 7 27 3 27 -4 0 -8 24 -8 53 -1 73 -11
143 -29 207 -9 30 -16 61 -17 68 -1 6 -5 12 -10 12 -4 0 -8 11 -8 25 0 14 -3
25 -8 25 -4 0 -14 15 -21 33 -16 35 -73 97 -90 97 -6 0 -11 4 -11 9 0 8 -52
30 -83 35 -7 1 -18 6 -26 10 -10 7 -12 6 -6 -4 6 -10 4 -11 -6 -4 -8 5 -25 10
-39 10 -61 4 -74 6 -62 11 6 2 10 9 6 14 -3 5 1 9 8 9 8 0 35 13 61 30 26 16
47 27 47 24 0 -4 7 -1 15 6 13 11 15 9 15 -13 0 -36 50 -71 66 -46 3 5 10 7
15 4 5 -4 9 -2 9 3 0 10 3 11 85 16 67 4 125 22 125 39 0 6 3 7 7 4 7 -8 39
34 35 46 -1 4 2 7 6 7 9 0 10 2 16 70 2 25 5 47 6 50 1 3 2 8 1 13 0 4 3 7 8
7 6 0 8 9 6 19 -2 11 3 22 11 25 8 3 14 12 14 19 0 25 83 102 140 130 56 27
133 48 183 49 15 1 27 4 27 8 0 4 14 4 31 2 25 -4 30 -2 25 9 -4 8 0 5 8 -5 9
-11 16 -15 16 -9 0 6 6 10 14 9 21 -2 21 17 -1 29 -10 6 -30 18 -45 28 -16 10
-28 16 -28 12 0 -3 -13 1 -30 10 -16 8 -32 15 -35 15 -3 0 -6 0 -7 1 -33 11
-187 25 -251 23 -97 -2 -106 4 -78 49 12 20 23 57 25 82 3 42 0 50 -29 80 -34
33 -97 61 -114 51 -5 -4 -12 -2 -15 3 -5 8 -19 8 -91 -1 -11 -2 -22 -5 -25 -8
-3 -3 -16 -11 -29 -18 -19 -11 -22 -11 -15 0 4 7 -4 2 -19 -12 -14 -14 -30
-24 -34 -24 -4 1 -14 -7 -21 -17 -7 -11 -20 -19 -28 -19 -8 0 -14 -5 -14 -10
0 -6 -16 -10 -35 -8 -25 1 -35 7 -35 19 0 9 -7 22 -15 29 -8 7 -15 10 -15 6 0
-4 -11 1 -25 10 -37 24 -33 49 8 48 66 -2 69 -3 63 -21 -6 -14 -3 -14 15 3 11
10 22 18 23 16 1 -4 31 6 71 23 52 23 90 38 100 40 19 2 50 18 57 29 3 5 4 30
1 55 -2 25 -5 52 -6 59 0 6 -4 12 -7 12 -4 0 -13 12 -19 28 -14 34 -65 92 -80
92 -6 0 -11 5 -11 10 0 6 -9 10 -20 10 -12 0 -20 7 -20 17 0 9 -3 14 -6 10 -4
-3 -19 0 -35 9 -16 8 -29 12 -29 9 0 -3 -9 -1 -20 5 -11 6 -44 12 -73 14 -30
1 -59 6 -65 10 -7 4 -12 4 -12 -1z m-34 -62 c-4 -5 0 -11 6 -14 7 -2 -1 -11
-18 -20 -17 -9 -34 -13 -38 -10 -3 4 -6 1 -6 -5 0 -6 -20 -21 -45 -33 -25 -12
-45 -26 -45 -31 0 -4 -6 -8 -12 -8 -17 0 -108 -84 -108 -99 0 -6 -4 -11 -10
-11 -10 0 -57 -89 -66 -122 -2 -10 -7 -28 -10 -40 -3 -13 -6 -29 -6 -35 -2
-20 -15 -15 -37 15 -12 15 -26 33 -31 40 -6 6 -8 12 -3 12 4 0 -2 7 -13 15
-22 17 -70 20 -80 4 -3 -6 -15 -9 -25 -6 -11 3 -17 1 -14 -3 3 -5 -11 -14 -30
-21 -19 -7 -35 -16 -35 -20 0 -3 -12 -6 -27 -5 -21 1 -29 7 -31 24 -2 12 2 22
9 22 8 0 9 3 0 13 -6 8 -8 17 -4 20 6 7 -53 35 -91 44 -12 2 -25 5 -31 6 -5 2
-19 8 -29 14 -18 10 -18 11 5 24 13 7 35 15 49 17 13 2 27 6 30 10 3 4 25 7
50 8 88 2 120 14 115 44 -1 8 6 27 17 43 16 22 26 27 51 23 42 -5 67 -16 67
-28 0 -6 9 -8 20 -5 13 3 18 1 13 -6 -4 -6 0 -8 10 -4 10 3 17 3 17 -2 0 -4 7
-8 15 -8 8 0 15 4 15 8 0 4 9 5 20 2 11 -3 20 -1 20 4 0 4 16 17 35 27 19 11
35 23 35 28 0 4 7 8 15 8 8 0 15 5 15 12 0 6 3 9 6 5 3 -3 21 3 39 13 24 13
36 15 44 7 8 -8 11 -8 11 2 0 8 6 11 15 7 8 -3 15 0 15 7 0 8 4 6 10 -3 8 -12
10 -12 10 -1 0 9 8 12 25 9 14 -3 28 -1 31 3 3 5 7 9 10 9 3 0 3 -4 0 -9z
m-1066 -451 c0 -5 -2 -10 -4 -10 -3 0 -8 5 -11 10 -3 6 -1 10 4 10 6 0 11 -4
11 -10z m1190 -161 c0 -4 -7 -15 -16 -23 -8 -9 -12 -16 -8 -16 4 0 -1 -9 -11
-20 -10 -11 -15 -20 -11 -20 4 0 2 -9 -4 -19 -5 -11 -12 -37 -15 -58 -5 -32
-11 -71 -14 -80 -1 -2 -2 -6 -3 -10 -2 -11 -28 -36 -31 -32 -2 2 -11 29 -22
59 -10 30 -24 60 -29 66 -6 6 -20 22 -30 37 -11 14 -23 24 -28 21 -4 -3 -8 -1
-8 4 0 10 -55 26 -77 23 -15 -2 -26 16 -15 23 15 9 156 28 210 28 12 0 22 4
22 10 0 5 3 7 8 5 4 -3 15 -2 25 2 24 9 57 9 57 0z m-10 -901 c0 -10 4 -18 9
-18 9 0 24 -49 25 -85 1 -11 4 -24 7 -30 5 -8 4 -65 -4 -192 0 -13 -5 -23 -10
-23 -6 0 -6 -5 0 -12 8 -11 10 -32 4 -40 -2 -2 -4 -14 -6 -28 -2 -14 -9 -38
-16 -55 -7 -16 -13 -32 -14 -35 -5 -19 -49 -93 -67 -113 -26 -27 -60 -47 -80
-47 -20 0 -68 45 -68 64 0 9 -4 16 -8 16 -10 0 -14 37 -14 140 -1 107 5 189
13 184 3 -2 7 9 7 24 6 111 108 312 158 312 9 0 13 5 9 13 -4 6 7 -4 24 -23
17 -19 31 -43 31 -52z"/>
<path d="M4520 6704 c0 -6 -30 -11 -72 -12 -148 -5 -168 -7 -168 -15 0 -4 -10
-3 -21 4 -17 9 -20 8 -14 -2 6 -9 3 -11 -8 -6 -16 6 -47 -16 -47 -34 0 -8 15
-13 33 -10 4 0 7 -4 7 -9 0 -6 12 -9 28 -6 15 2 27 5 27 6 0 1 15 3 33 4 17 1
32 -1 32 -6 0 -5 6 -6 13 -1 17 11 67 10 67 -2 0 -6 3 -6 8 0 8 12 22 13 40 2
7 -5 14 -2 18 7 4 11 11 13 23 6 10 -5 26 -7 37 -6 10 2 27 0 36 -5 10 -5 18
-5 20 1 2 7 15 7 36 1 18 -5 30 -7 28 -3 -2 4 15 7 39 7 24 0 41 -3 38 -7 -2
-5 0 -8 6 -8 5 0 12 4 15 8 6 10 36 9 53 -1 6 -4 39 -7 74 -8 139 -1 168 -3
164 -9 -2 -4 6 -6 18 -5 12 1 32 -5 45 -13 16 -11 22 -11 22 -2 0 10 3 10 15
0 19 -16 20 -3 1 16 -9 9 -17 10 -21 4 -4 -7 -13 -7 -26 0 -10 6 -19 8 -19 5
0 -3 -10 0 -22 7 -13 7 -27 11 -33 9 -5 -1 -15 6 -22 15 -7 10 -13 15 -13 11
0 -4 -10 -2 -22 5 -13 7 -26 13 -30 14 -5 1 -10 3 -13 4 -3 1 -13 3 -22 4 -10
1 -23 5 -30 9 -6 4 -14 3 -18 -3 -4 -6 -12 -7 -18 -3 -17 11 -33 13 -124 16
-46 1 -83 -2 -83 -7 0 -5 -6 -4 -12 1 -7 6 -25 8 -40 6 -18 -2 -28 1 -28 9 0
10 -2 10 -9 0 -4 -8 -12 -14 -16 -14 -4 0 -12 6 -16 14 -5 7 -9 8 -9 2z"/>
<path d="M5190 6581 c0 -6 15 -9 34 -8 19 1 33 4 31 7 -6 10 -65 10 -65 1z"/>
<path d="M2140 6559 c0 -5 -4 -7 -10 -4 -5 3 -10 2 -10 -3 0 -10 -60 -38 -72
-34 -5 1 -8 -2 -8 -8 0 -5 -6 -9 -12 -7 -7 1 -14 -9 -16 -22 -2 -13 0 -21 5
-18 5 3 9 -5 9 -18 0 -13 -3 -22 -7 -19 -11 6 -16 -41 -7 -65 4 -13 17 -25 28
-28 11 -3 20 -9 20 -13 0 -7 29 -6 38 0 1 2 7 3 12 4 6 0 14 7 19 14 4 7 13
12 18 10 6 -2 22 10 37 25 25 27 25 29 11 58 -9 16 -12 29 -8 29 5 0 3 4 -4 8
-7 4 -13 24 -15 45 -1 20 -6 37 -11 37 -4 0 -5 5 -2 10 3 6 1 10 -4 10 -6 0
-11 -5 -11 -11z"/>
<path d="M3090 6393 c0 -8 -11 -12 -32 -9 -18 2 -42 0 -54 -4 -11 -5 -37 -11
-56 -14 -19 -3 -48 -11 -64 -17 -16 -7 -33 -13 -38 -13 -5 -1 -10 -11 -12 -22
-3 -15 3 -24 19 -29 35 -12 67 -13 67 -2 0 6 3 8 6 5 3 -4 31 6 62 22 31 15
72 31 90 35 17 3 32 11 32 16 0 6 5 7 10 4 6 -3 10 1 10 9 0 8 -4 18 -10 21
-5 3 -10 0 -10 -7 0 -9 -3 -9 -10 2 -6 10 -10 11 -10 3z"/>
<path d="M1760 6363 c0 -5 -6 -10 -12 -11 -7 -1 -26 -3 -42 -5 -16 -2 -31 -8
-34 -15 -2 -7 -8 -10 -12 -7 -9 6 -45 -28 -61 -57 -5 -10 -6 -18 -1 -18 7 0
11 -15 14 -57 1 -7 5 -13 10 -13 4 0 8 -6 8 -13 0 -15 32 -36 51 -33 8 1 24 8
37 14 14 8 22 9 22 2 0 -5 9 -1 20 10 17 17 45 25 73 21 4 0 7 4 7 10 0 5 3 8
8 6 4 -3 21 3 37 12 38 20 38 59 1 96 -26 26 -96 61 -96 49 0 -4 -7 -1 -15 6
-8 7 -15 8 -15 3z"/>
<path d="M2265 6319 c-4 -5 -11 -7 -16 -4 -5 4 -9 1 -9 -5 0 -6 -4 -8 -10 -5
-5 3 -10 2 -10 -3 0 -5 -18 -17 -39 -28 -51 -24 -57 -45 -20 -67 20 -11 29
-12 29 -4 0 8 3 8 8 2 10 -14 42 -15 39 -2 -1 6 8 13 21 16 13 3 24 11 25 16
1 6 5 9 10 8 4 -2 7 2 7 7 0 6 7 10 15 10 8 0 15 5 15 10 0 6 6 10 13 10 24 0
14 29 -12 35 -50 13 -61 14 -66 4z"/>
<path d="M2571 6292 c-1 -7 -7 -12 -13 -10 -17 3 -88 -24 -88 -34 0 -4 -13
-14 -30 -23 -16 -9 -30 -12 -30 -9 0 4 -8 -3 -19 -14 -10 -12 -21 -18 -25 -14
-4 4 -14 -1 -21 -11 -7 -10 -16 -18 -19 -18 -3 0 -20 -6 -38 -13 -18 -8 -40
-13 -50 -11 -25 5 -12 -21 15 -30 12 -4 24 -8 27 -9 3 0 16 -11 30 -23 13 -13
28 -23 34 -23 5 0 6 -3 3 -6 -3 -4 5 -15 18 -26 14 -11 25 -26 25 -34 0 -8 7
-14 15 -14 8 0 15 -6 15 -14 0 -8 5 -18 12 -22 7 -5 9 -2 4 7 -4 8 0 5 8 -5 9
-11 16 -16 16 -12 0 5 6 4 13 -2 7 -6 25 -13 40 -16 15 -2 31 -7 37 -11 5 -3
10 0 10 7 0 10 2 10 8 0 9 -13 38 -12 60 1 6 5 16 6 21 3 5 -3 14 1 21 9 7 8
16 12 21 9 5 -3 9 0 9 5 0 6 6 11 14 11 8 0 17 7 20 16 3 8 10 13 15 9 6 -3
13 1 18 8 4 7 16 17 26 20 10 4 16 11 13 15 -3 5 6 14 20 21 14 6 22 16 19 21
-3 6 1 10 9 10 10 0 16 9 16 25 0 14 -4 25 -9 25 -10 0 -71 58 -71 66 0 9 -49
54 -59 54 -6 0 -14 7 -19 16 -5 8 -17 17 -28 19 -10 2 -20 4 -21 5 -2 2 -6 3
-10 5 -5 1 -16 5 -25 9 -10 5 -24 6 -32 3 -8 -3 -17 -1 -20 6 -3 9 -5 8 -5 -1z"/>
<path d="M4516 6219 c3 -5 -1 -6 -9 -3 -8 3 -18 0 -22 -5 -3 -6 -11 -9 -16 -6
-5 4 -12 -1 -15 -9 -3 -9 -10 -13 -15 -10 -5 3 -9 0 -9 -7 0 -7 -3 -9 -6 -6
-4 4 -15 -3 -25 -15 -11 -11 -19 -18 -19 -14 0 4 -12 -4 -27 -18 -15 -14 -31
-22 -37 -19 -6 3 -8 3 -4 -2 4 -4 -11 -22 -35 -39 -23 -17 -44 -33 -47 -36 -3
-3 -23 -14 -45 -25 -22 -11 -48 -28 -59 -38 -11 -10 -26 -15 -33 -13 -7 3 -13
-1 -13 -9 0 -8 -6 -15 -14 -15 -8 0 -22 -7 -30 -16 -9 -8 -16 -13 -16 -9 0 8
-62 -35 -72 -50 -4 -5 -8 -6 -8 -1 0 5 -8 0 -17 -10 -10 -10 -25 -20 -33 -22
-8 -2 -16 -8 -18 -13 -2 -5 -10 -9 -18 -9 -8 0 -14 -5 -14 -11 0 -5 -4 -7 -10
-4 -5 3 -10 1 -10 -5 0 -6 -4 -8 -10 -5 -5 3 -10 2 -10 -4 0 -5 -9 -13 -20
-16 -11 -4 -17 -11 -14 -17 4 -6 1 -9 -7 -6 -7 2 -25 -6 -39 -19 -14 -13 -31
-23 -38 -23 -7 0 -15 -7 -18 -15 -4 -8 -10 -12 -15 -9 -5 3 -9 0 -9 -6 0 -7
-6 -10 -14 -7 -8 3 -17 -1 -20 -9 -3 -9 -10 -13 -15 -10 -5 3 -12 -1 -15 -10
-3 -8 -11 -12 -16 -9 -6 4 -9 1 -8 -7 2 -7 -5 -13 -15 -13 -10 0 -24 -7 -30
-16 -14 -17 -48 -34 -78 -38 -5 0 -7 -5 -4 -11 3 -5 0 -10 -8 -10 -8 0 -20 -7
-27 -15 -7 -8 -16 -13 -20 -10 -4 3 -11 -2 -14 -11 -4 -9 -9 -14 -12 -11 -3 2
-16 -5 -29 -17 -28 -26 -115 -72 -128 -68 -5 1 -6 -2 -3 -7 3 -5 -1 -14 -9
-21 -8 -7 -15 -9 -15 -4 0 4 -7 -1 -16 -12 -8 -10 -12 -12 -8 -4 4 8 -4 5 -18
-7 -13 -13 -30 -23 -36 -23 -7 0 -12 -5 -12 -11 0 -5 -4 -7 -10 -4 -5 3 -10 2
-10 -4 0 -6 -11 -13 -25 -17 -14 -3 -22 -10 -19 -15 3 -5 0 -9 -6 -9 -19 0
-90 -54 -90 -68 0 -7 -4 -10 -10 -7 -6 4 -7 -1 -3 -11 4 -10 2 -15 -3 -11 -6
4 -9 -19 -7 -61 4 -104 6 -121 15 -116 4 3 8 0 8 -6 0 -12 10 -26 57 -75 17
-18 34 -30 37 -27 3 3 6 0 6 -6 0 -7 3 -11 8 -11 22 4 38 -7 97 -65 36 -35 65
-62 65 -59 0 4 9 -4 20 -17 11 -13 20 -27 20 -32 0 -4 4 -8 9 -8 13 0 81 -67
81 -80 0 -6 3 -9 8 -7 9 4 52 -40 44 -47 -3 -3 0 -6 7 -6 6 0 37 -27 68 -60
31 -32 60 -57 65 -54 4 3 8 0 8 -6 0 -14 46 -60 60 -60 7 0 10 -6 7 -12 -2 -7
9 -21 25 -30 15 -10 28 -22 28 -28 0 -5 6 -10 14 -10 8 0 18 -9 21 -20 3 -11
13 -20 21 -20 8 0 12 -4 9 -10 -3 -6 -3 -10 2 -11 4 0 16 -2 26 -4 9 -2 17 2
17 9 0 11 61 47 76 45 4 0 10 4 13 9 3 6 13 12 21 14 8 2 25 13 39 25 14 12
28 20 32 18 4 -3 10 2 13 11 3 9 13 14 21 11 9 -4 12 -1 8 9 -4 10 0 12 13 7
12 -4 15 -3 10 5 -4 7 -2 12 6 12 10 0 10 2 -1 9 -8 5 -10 14 -6 21 5 9 4 11
-3 6 -6 -4 -20 2 -32 14 -11 11 -24 20 -29 20 -5 0 -13 9 -16 20 -3 11 -13 20
-21 20 -8 0 -14 5 -14 11 0 5 -5 7 -10 4 -6 -4 -9 -3 -8 2 4 11 -48 63 -62 63
-6 0 -9 4 -6 8 3 5 -6 15 -19 22 -13 7 -22 17 -19 22 3 4 -2 8 -10 8 -8 0 -18
9 -21 20 -3 11 -11 20 -16 20 -6 0 -38 27 -71 60 -33 33 -64 60 -70 60 -6 0
-9 3 -5 6 6 7 -16 34 -28 34 -6 0 -58 53 -96 96 -9 11 -25 25 -37 33 -11 8
-19 18 -16 23 3 4 -2 8 -10 8 -9 0 -16 6 -16 14 0 8 -9 18 -21 21 -26 9 -59
63 -51 84 8 22 28 41 36 34 3 -4 6 -1 6 5 0 6 18 22 40 35 22 13 38 26 35 29
-3 3 6 8 20 12 14 4 25 13 25 21 0 8 3 14 8 13 15 -4 50 13 56 27 3 8 12 15
21 15 8 0 15 5 15 11 0 5 5 7 10 4 6 -3 10 -1 10 4 0 6 7 11 16 11 9 0 12 5 8
13 -5 7 -2 7 10 -2 9 -8 16 -10 15 -5 -3 19 1 35 10 30 4 -3 23 6 41 19 18 13
36 22 40 20 4 -3 10 5 13 16 3 12 10 18 15 15 5 -3 21 5 36 19 15 13 29 25 31
26 37 9 44 13 39 21 -3 5 3 12 15 15 12 3 21 10 21 15 0 5 4 7 8 4 5 -3 20 6
35 20 15 14 27 22 27 19 0 -4 7 0 15 8 8 8 31 25 52 38 21 13 40 26 43 29 3 3
19 12 37 19 18 7 31 16 30 20 -1 3 2 7 6 8 4 1 19 11 34 22 14 12 29 18 33 16
5 -3 12 0 16 6 5 8 2 10 -7 5 -8 -4 -5 0 5 8 11 9 26 16 33 16 7 0 13 5 13 11
0 5 5 7 10 4 6 -3 10 -2 10 3 0 6 13 15 30 20 16 6 37 20 46 31 10 11 21 18
26 15 4 -3 8 2 8 11 0 9 5 13 10 10 6 -3 10 -1 10 5 0 7 7 10 15 6 8 -3 14 0
12 7 -1 7 4 11 11 10 6 -2 12 1 12 6 0 8 19 18 50 26 3 1 12 5 20 8 8 3 29 8
45 9 17 2 33 7 36 12 7 9 69 -51 69 -66 0 -5 4 -7 9 -3 5 3 21 -6 34 -19 14
-14 27 -22 30 -19 6 5 39 -53 43 -73 1 -7 10 -21 20 -32 11 -11 24 -27 30 -34
6 -7 22 -20 34 -28 13 -8 32 -24 44 -36 12 -11 34 -29 49 -39 15 -9 27 -23 27
-30 0 -8 9 -17 20 -20 11 -4 18 -11 15 -16 -4 -5 1 -12 11 -16 20 -7 74 -62
74 -74 0 -5 6 -9 14 -9 8 0 17 -9 21 -20 3 -11 10 -19 14 -17 4 1 31 -22 60
-50 29 -29 58 -53 63 -53 6 0 9 -3 6 -6 -4 -3 7 -18 23 -33 16 -15 26 -31 22
-34 -3 -4 1 -7 10 -7 10 0 17 -4 17 -8 0 -11 36 -54 44 -53 20 3 26 0 21 -9
-3 -5 -1 -10 5 -10 7 0 6 -5 -2 -14 -7 -7 -22 -12 -33 -11 -11 0 -24 -1 -30
-4 -5 -3 -18 -7 -28 -8 -21 -4 -70 -51 -75 -73 -2 -8 -9 -18 -15 -22 -7 -4 -9
-8 -4 -8 4 0 1 -10 -8 -23 -8 -13 -12 -27 -8 -30 3 -4 2 -7 -4 -7 -9 0 -28
-54 -24 -72 0 -5 -3 -8 -8 -8 -5 0 -8 -8 -7 -17 2 -10 -1 -20 -5 -23 -5 -3 -9
-20 -11 -38 -1 -18 -5 -32 -8 -32 -3 0 -6 -14 -7 -31 -1 -17 -8 -37 -14 -45
-9 -11 -9 -14 1 -14 8 0 10 -7 5 -17 -8 -20 -14 -52 -19 -103 -2 -19 -6 -43
-10 -52 -4 -9 -5 -22 -1 -28 7 -12 8 -12 -80 -16 -99 -5 -115 -7 -115 -14 0
-3 -10 -7 -22 -7 -29 -3 -130 -53 -141 -70 -4 -7 -15 -13 -22 -13 -8 0 -15 -4
-15 -8 0 -5 -8 -17 -18 -28 -10 -10 -20 -23 -23 -29 -2 -5 -7 -9 -11 -7 -5 1
-8 -2 -8 -8 0 -21 -2 -25 -16 -33 -8 -4 -14 -13 -14 -18 0 -6 -10 -25 -22 -42
-12 -17 -16 -27 -8 -22 8 5 3 -7 -11 -26 -13 -19 -25 -37 -25 -41 -1 -5 -3
-10 -4 -13 -1 -3 -3 -8 -5 -12 -1 -5 -8 -21 -15 -38 -16 -38 -18 -41 -29 -90
-5 -22 -12 -51 -16 -65 -3 -14 -7 -29 -8 -35 -2 -5 -6 -15 -10 -22 -4 -6 -3
-14 2 -17 6 -4 4 -17 -4 -32 -7 -15 -11 -32 -9 -39 3 -7 1 -16 -5 -20 -6 -3
-11 -17 -11 -30 0 -13 -5 -27 -11 -30 -5 -4 -8 -12 -6 -18 2 -7 -3 -21 -12
-31 -13 -16 -13 -18 -1 -11 13 8 13 7 0 -10 -8 -10 -15 -30 -15 -44 0 -14 -4
-32 -8 -38 -5 -7 -5 -13 -2 -13 4 0 -1 -7 -9 -16 -9 -8 -16 -21 -16 -28 0 -14
-56 -30 -71 -20 -5 3 -9 12 -9 20 0 8 -4 14 -9 14 -7 0 -14 19 -27 82 -6 28
-10 178 -4 178 3 0 5 37 4 83 0 45 2 87 5 92 3 6 6 19 7 30 2 19 6 41 18 110
10 54 12 60 17 70 4 6 9 27 13 48 4 21 11 35 17 32 5 -4 9 -2 9 4 0 23 -39 32
-142 32 -102 1 -165 -25 -159 -63 0 -5 -3 -8 -7 -8 -5 0 -15 -18 -22 -40 -7
-21 -17 -37 -23 -33 -5 3 -7 0 -5 -8 3 -8 -3 -27 -11 -44 -9 -16 -16 -40 -15
-52 1 -13 -2 -23 -6 -23 -4 0 -11 -7 -14 -16 -4 -10 -2 -13 6 -8 7 5 8 3 3 -6
-4 -7 -10 -34 -12 -59 -5 -56 -10 -86 -12 -86 -2 0 -4 -8 -6 -17 -2 -10 2 -18
8 -18 8 0 8 -3 2 -8 -12 -9 -16 -24 -20 -81 -2 -24 -8 -47 -15 -51 -6 -4 -11
-9 -10 -11 2 -5 -10 -59 -17 -79 -8 -19 -11 -30 -17 -57 -2 -12 -9 -30 -15
-41 -6 -11 -7 -22 -4 -26 3 -3 1 -6 -5 -6 -7 0 -12 -11 -12 -24 0 -13 -4 -26
-8 -28 -5 -1 -15 -16 -23 -33 -10 -21 -22 -29 -42 -31 -45 -2 -75 52 -80 149
-1 15 -6 27 -12 27 -5 0 -3 5 5 10 13 9 13 10 0 10 -9 0 -11 3 -5 8 6 4 10 32
10 62 0 30 -4 58 -10 62 -6 5 -6 8 1 8 15 0 26 40 11 40 -8 0 -8 3 -2 8 6 4
11 21 11 37 2 37 12 120 14 120 1 0 3 14 6 30 5 43 9 59 16 70 3 6 9 29 13 53
4 23 10 42 15 42 13 0 21 33 11 43 -13 13 -54 19 -131 18 -67 0 -81 -2 -115
-16 -25 -11 -65 -56 -59 -67 3 -4 0 -8 -6 -8 -6 0 -8 -4 -5 -10 3 -5 1 -10 -5
-10 -6 0 -9 -4 -6 -9 3 -5 -1 -14 -9 -21 -8 -7 -12 -16 -9 -21 3 -5 -3 -9 -13
-9 -15 0 -16 -2 -3 -10 13 -9 13 -10 0 -10 -9 0 -15 -10 -16 -22 -1 -32 -7
-52 -19 -60 -6 -5 -5 -8 3 -8 8 0 10 -5 6 -12 -5 -7 -9 -26 -10 -43 -3 -33
-11 -93 -16 -115 -2 -8 -7 -18 -13 -22 -6 -5 -5 -8 3 -8 7 0 12 -13 12 -30 0
-16 -4 -30 -10 -30 -5 0 -10 -6 -10 -13 0 -15 -35 -47 -53 -47 -9 0 -12 22
-12 78 0 42 -4 83 -8 89 -5 7 -7 19 -4 28 4 8 2 17 -4 20 -5 4 -7 11 -4 16 4
5 1 9 -6 9 -7 0 -9 3 -6 7 4 3 0 17 -9 31 -9 13 -11 21 -5 18 7 -5 9 -1 5 8
-3 9 -13 16 -22 16 -8 0 -12 3 -9 7 4 4 -11 24 -34 45 -23 21 -44 36 -47 33
-3 -2 -10 0 -17 5 -6 5 -20 11 -31 13 -10 1 -24 5 -29 9 -13 8 -156 7 -170 -1
-5 -3 -19 -7 -30 -9 -11 -2 -27 -5 -34 -6 -8 -2 -17 -8 -19 -14 -2 -7 -8 -10
-13 -6 -8 5 -53 -16 -87 -41 -32 -23 -132 -125 -132 -134 0 -5 -3 -11 -7 -13
-5 -1 -19 -24 -32 -50 -13 -27 -27 -48 -31 -48 -6 0 -8 -7 -12 -49 -1 -11 -5
-18 -9 -15 -7 4 -22 -34 -20 -48 1 -5 -3 -8 -8 -8 -5 0 -8 -8 -6 -17 1 -10 -4
-31 -12 -46 -8 -16 -12 -36 -8 -45 3 -8 0 -19 -6 -23 -7 -4 -13 -27 -14 -51
-2 -23 -4 -43 -5 -43 -2 0 -10 -35 -12 -57 -1 -10 -6 -18 -11 -18 -4 0 -5 -5
-1 -12 5 -7 2 -9 -9 -5 -11 4 -14 2 -11 -7 3 -7 -6 -45 -20 -84 -13 -39 -22
-73 -18 -76 3 -3 0 -6 -6 -6 -6 0 -9 -9 -7 -21 2 -11 -4 -27 -15 -36 -10 -9
-17 -19 -15 -23 2 -3 -9 -11 -25 -17 -24 -9 -32 -8 -49 9 -21 18 -25 30 -22
56 1 6 -2 12 -6 12 -9 0 -10 8 -15 145 -2 55 -1 112 3 128 5 18 4 27 -4 27 -8
0 -8 3 -2 8 6 4 11 18 11 32 2 23 6 61 19 160 2 19 7 46 11 60 3 14 7 39 8 55
1 17 4 35 7 40 3 6 5 22 4 38 -1 15 2 27 7 27 4 0 8 13 8 28 0 15 5 33 12 40
9 9 9 12 -1 12 -10 0 -10 4 -3 13 9 11 25 69 23 82 -1 3 5 21 13 40 9 20 15
36 15 38 -3 14 16 77 23 77 5 0 7 4 3 9 -3 5 0 13 6 16 5 4 8 13 5 21 -3 8 -1
14 4 14 6 0 10 8 10 18 0 10 7 28 16 40 8 12 12 22 8 22 -4 0 1 7 12 16 10 8
12 13 4 9 -8 -4 -6 1 5 10 11 9 18 18 15 20 -3 2 3 13 12 24 17 20 17 21 -1
30 -10 6 -21 7 -25 4 -3 -3 -6 -2 -6 3 0 9 -30 13 -135 14 -65 1 -83 -1 -102
-13 -7 -5 -13 -5 -13 -1 0 15 -61 -61 -66 -83 -4 -13 -11 -23 -17 -23 -6 0 -7
-3 -4 -6 4 -4 -3 -20 -14 -35 -13 -18 -16 -29 -8 -29 7 0 2 -9 -11 -20 -13
-11 -19 -20 -15 -20 4 0 0 -10 -11 -22 -10 -12 -14 -18 -7 -15 6 4 0 -16 -13
-43 -14 -28 -22 -55 -19 -60 3 -4 0 -10 -5 -12 -6 -2 -12 -13 -13 -26 0 -12
-4 -22 -7 -22 -4 0 -6 -10 -5 -22 1 -13 -5 -33 -13 -46 -8 -12 -11 -22 -6 -22
4 0 -1 -7 -12 -16 -10 -8 -13 -13 -6 -9 7 4 12 0 12 -9 0 -9 -6 -16 -12 -16
-9 0 -8 -4 2 -10 11 -7 11 -10 2 -10 -7 0 -10 -4 -7 -10 3 -6 -1 -7 -10 -3 -9
3 -13 9 -8 12 24 16 1 121 -40 186 -25 39 -104 89 -161 101 -35 8 -168 3 -186
-7 -3 -1 -9 -3 -15 -4 -5 0 -32 -11 -59 -23 -27 -12 -52 -22 -55 -22 -8 0 -44
-27 -72 -52 -11 -10 -19 -15 -19 -11 0 3 -17 -11 -37 -33 -21 -21 -41 -38 -45
-36 -5 1 -8 -5 -8 -14 0 -8 -4 -13 -8 -10 -4 2 -18 -11 -31 -30 -13 -19 -28
-34 -33 -34 -5 0 -7 -4 -4 -9 3 -5 -1 -11 -9 -15 -8 -3 -15 -12 -15 -21 0 -8
-4 -15 -9 -15 -5 0 -14 -13 -20 -30 -5 -16 -15 -30 -20 -30 -6 0 -11 -9 -11
-20 0 -11 -3 -20 -8 -20 -4 0 -18 -22 -31 -50 -13 -27 -28 -50 -33 -50 -5 0
-7 -4 -3 -9 3 -5 1 -12 -5 -16 -6 -4 -8 -10 -5 -15 3 -4 -2 -13 -10 -20 -8 -7
-13 -16 -10 -20 3 -5 1 -11 -5 -15 -6 -4 -8 -11 -5 -16 4 -5 1 -9 -5 -9 -6 0
-8 -4 -5 -10 3 -5 2 -10 -3 -10 -5 0 -9 -7 -10 -15 -1 -8 -3 -22 -4 -30 -1 -8
-5 -15 -10 -15 -5 0 -6 -4 -3 -10 3 -5 2 -10 -3 -10 -5 0 -9 -6 -10 -12 0 -7
-3 -24 -7 -38 -14 -60 -22 -110 -17 -115 3 -3 1 -5 -5 -5 -5 0 -9 -28 -9 -65
1 -36 -2 -65 -5 -65 -6 0 -4 -33 5 -155 3 -33 14 -87 26 -120 12 -33 22 -66
22 -72 1 -7 5 -13 10 -13 5 0 7 -4 4 -9 -3 -5 1 -12 10 -15 8 -3 13 -10 9 -15
-3 -6 13 -28 35 -51 22 -22 40 -45 40 -51 0 -6 5 -7 10 -4 6 3 10 2 10 -3 0
-7 60 -42 83 -48 4 -1 10 -3 15 -4 4 -1 10 -2 14 -1 5 0 8 -4 8 -10 0 -6 7 -9
15 -5 8 3 15 2 15 -3 0 -5 11 -7 25 -6 14 2 27 -1 31 -6 3 -5 13 -5 24 1 11 6
21 6 24 1 7 -11 44 -3 65 13 11 8 13 8 7 -1 -4 -7 -2 -13 3 -13 6 0 11 5 11
11 0 5 5 7 10 4 6 -4 17 -2 24 4 8 7 18 11 22 10 16 -2 54 13 54 22 0 5 7 9
15 9 8 0 15 5 15 11 0 5 4 7 10 4 5 -3 10 0 10 8 0 8 20 27 45 43 25 15 45 32
45 36 0 4 6 8 14 8 8 0 17 7 20 16 3 8 10 12 16 9 5 -3 10 1 10 9 0 9 3 16 8
16 10 1 105 90 95 90 -4 0 0 5 9 11 21 12 103 129 91 129 -4 0 -1 5 7 10 20
13 53 13 45 0 -3 -5 -2 -10 4 -10 5 0 13 -9 16 -20 3 -11 13 -20 21 -20 8 0
14 -8 14 -17 0 -9 3 -14 6 -10 4 3 13 -1 21 -9 8 -8 19 -12 24 -9 5 4 9 2 9
-3 0 -15 82 -34 125 -29 51 7 72 15 100 41 12 12 50 46 83 76 33 30 58 58 56
61 -2 4 3 12 11 19 8 7 15 19 15 26 0 8 4 14 10 14 5 0 12 11 16 25 3 14 10
25 16 25 5 0 7 4 4 9 -3 5 1 12 10 15 25 10 32 7 39 -14 3 -11 12 -20 19 -20
7 0 19 -11 26 -25 7 -13 17 -22 22 -19 4 3 8 2 8 -3 0 -12 70 -42 115 -49 22
-3 43 -11 47 -18 5 -7 8 -6 8 4 0 12 2 12 9 2 11 -17 12 -18 37 -4 16 8 24 8
32 0 9 -9 12 -9 12 -1 0 6 18 14 40 18 22 4 40 11 40 16 0 5 6 9 14 9 8 0 28
11 44 25 17 14 35 25 41 25 6 0 11 7 11 16 0 8 4 13 9 10 10 -7 91 66 91 82 0
7 6 11 13 10 6 -2 11 3 9 10 -1 8 2 11 7 8 6 -4 19 13 30 36 11 24 32 63 47
87 15 24 22 41 16 37 -7 -4 -6 5 3 21 13 25 24 55 30 76 2 4 4 10 5 15 1 4 2
10 1 15 0 4 6 7 14 7 7 0 18 6 22 13 4 6 16 18 25 25 15 12 20 12 32 -1 8 -8
12 -17 9 -21 -4 -3 -2 -6 4 -6 6 0 10 -10 9 -22 -1 -13 2 -25 6 -28 3 -3 8
-17 10 -32 2 -15 7 -30 11 -34 4 -4 7 -16 7 -26 0 -11 5 -16 10 -13 6 3 10 1
10 -4 0 -20 4 -26 27 -44 13 -10 21 -23 17 -28 -3 -5 -2 -8 3 -7 4 1 29 -8 55
-21 32 -15 65 -23 100 -22 77 0 86 2 113 27 13 12 26 19 29 16 3 -3 6 0 6 7 0
7 4 10 9 6 5 -3 13 4 16 16 4 11 9 18 12 15 8 -7 79 81 98 121 9 18 20 33 26
33 6 0 7 5 4 10 -4 6 5 24 18 40 22 26 27 27 43 15 11 -8 16 -15 12 -15 -4 0
6 -13 22 -29 17 -15 30 -32 30 -37 0 -5 16 -18 35 -28 19 -11 35 -22 35 -25 0
-3 17 -7 37 -9 20 -1 47 -4 60 -6 13 -3 23 0 23 6 0 6 6 6 15 -2 12 -10 15
-10 15 0 0 7 6 10 14 7 8 -3 26 5 40 18 13 12 27 20 30 17 3 -3 6 2 6 12 0 9
5 14 10 11 6 -3 13 1 16 9 3 9 12 16 20 16 8 0 13 4 12 8 -2 4 9 20 25 35 15
16 27 34 27 42 0 8 5 15 11 15 5 0 8 4 5 9 -3 5 0 11 8 14 8 3 17 19 21 36 3
16 15 39 26 52 19 22 20 22 34 3 8 -10 15 -26 15 -34 0 -13 1 -13 10 0 6 10
10 11 10 3 0 -27 86 -90 134 -99 11 -2 23 -9 27 -15 3 -6 9 -7 12 -2 3 5 25 8
48 6 24 -1 49 3 56 9 7 6 13 8 13 5 0 -4 23 16 51 43 28 28 55 50 60 50 5 0 9
7 9 15 0 8 4 15 9 15 4 0 19 21 32 48 13 26 28 50 33 53 5 4 6 11 2 17 -3 6
-2 13 4 17 6 4 8 11 5 16 -4 5 -2 9 3 9 6 0 13 12 16 26 9 36 42 69 51 53 6
-8 4 -10 -6 -5 -10 6 -10 4 1 -6 8 -7 16 -20 18 -28 2 -8 8 -16 13 -18 5 -2 9
-10 9 -18 0 -8 5 -14 10 -14 6 0 10 -7 10 -16 0 -8 5 -12 10 -9 6 3 10 -1 10
-9 0 -9 7 -16 15 -16 8 0 15 -4 15 -10 0 -5 7 -10 15 -10 8 0 15 -3 15 -8 0
-23 139 -48 161 -28 9 8 10 8 5 -1 -9 -15 10 -18 19 -3 4 6 10 8 15 5 4 -3 24
11 44 30 20 19 33 35 30 35 -4 0 6 10 22 22 33 25 60 59 56 71 -1 4 1 7 6 7 4
0 16 17 27 38 11 20 24 40 30 44 6 5 4 8 -5 8 -13 0 -13 1 0 10 8 5 11 10 5
10 -5 0 -4 4 4 9 8 5 16 17 17 27 2 10 6 29 10 43 4 14 8 29 9 34 2 4 4 10 5
15 1 4 2 10 1 15 0 4 2 7 7 7 4 0 8 12 9 28 6 74 9 92 14 92 6 0 9 24 12 122
1 21 5 38 9 38 4 0 3 11 -2 25 -7 18 -6 25 3 25 7 0 8 3 2 8 -5 4 -10 17 -10
30 0 12 -3 22 -8 22 -4 0 -12 0 -17 0 -6 0 -9 -3 -9 -7 3 -20 -3 -34 -23 -53
-12 -11 -18 -20 -14 -20 5 0 2 -8 -5 -17 -12 -15 -12 -16 1 -8 12 7 13 6 4 -6
-16 -20 -43 -111 -46 -156 -1 -7 -4 -13 -8 -13 -7 0 -8 -5 -13 -51 -2 -14 -7
-30 -11 -37 -4 -7 -4 -17 -1 -22 3 -6 0 -13 -9 -16 -8 -3 -12 -12 -10 -19 3
-7 0 -16 -5 -20 -6 -3 -9 -11 -6 -16 4 -5 2 -9 -3 -9 -5 0 -8 -16 -7 -35 1
-19 -2 -35 -7 -35 -4 0 -7 -3 -7 -7 4 -25 -4 -44 -22 -53 -43 -24 -56 -20 -78
23 -31 62 -52 137 -38 137 9 0 9 2 1 8 -6 4 -10 15 -8 25 1 9 -1 17 -5 17 -11
0 -7 54 4 62 7 5 6 8 -1 8 -12 0 -13 158 -1 177 4 6 3 14 -2 17 -10 7 -9 31 2
42 3 4 2 15 -4 25 -5 11 -6 19 -2 19 4 0 8 31 8 70 0 38 3 70 7 70 4 0 6 16 4
35 -1 19 0 35 3 35 3 0 6 10 7 23 1 25 11 98 20 142 10 51 15 79 17 100 1 11
5 22 9 25 4 3 8 20 10 38 1 18 6 32 10 32 4 0 5 6 2 14 -3 7 1 20 8 27 12 13
17 29 20 67 1 6 5 12 10 12 4 0 8 6 8 13 0 7 9 23 20 35 11 12 20 25 19 29 -3
20 2 34 11 28 6 -3 10 0 10 7 0 8 12 15 26 16 15 1 32 6 38 11 6 4 23 11 39
15 23 5 27 11 25 36 -1 17 -5 30 -8 30 -4 0 -13 11 -20 25 -7 13 -17 22 -22
19 -4 -3 -8 0 -8 6 0 6 -3 9 -7 7 -10 -4 -53 40 -45 47 3 3 -2 6 -12 6 -9 0
-14 5 -11 10 6 9 -8 14 -27 11 -5 0 -8 4 -8 9 0 12 -120 130 -131 130 -4 0
-11 9 -14 21 -4 11 -9 18 -12 16 -8 -9 -53 35 -53 51 0 9 -3 13 -6 9 -6 -6
-40 20 -86 67 -15 16 -28 25 -29 20 0 -5 -4 1 -10 14 -5 13 -13 20 -19 17 -5
-3 -10 -1 -10 5 0 14 -25 40 -39 40 -6 0 -11 3 -11 8 0 10 -94 112 -103 112
-13 0 -47 34 -47 47 0 7 -4 12 -9 11 -5 -2 -24 14 -44 34 -19 20 -37 35 -40
32 -3 -3 -8 4 -12 15 -3 12 -11 21 -16 21 -6 0 -31 23 -57 50 -25 28 -52 50
-60 50 -7 0 -11 3 -9 8 6 9 -19 33 -27 25 -3 -4 -6 1 -6 10 0 10 -8 17 -20 17
-11 0 -20 4 -20 10 0 6 -9 6 -23 1 -14 -6 -30 -6 -38 0 -18 11 -141 10 -133
-2z m558 -1911 c10 -11 15 -22 12 -25 -3 -3 -1 -13 4 -23 5 -10 6 -20 3 -24
-8 -7 -11 -21 -19 -86 -4 -25 -12 -62 -19 -82 -9 -27 -9 -38 -1 -42 7 -3 8 -7
1 -13 -5 -4 -11 -15 -12 -23 -1 -8 -4 -24 -6 -35 -5 -24 -19 -98 -19 -105 0
-3 -4 -15 -9 -28 -5 -12 -11 -35 -14 -50 -8 -37 -13 -57 -15 -59 -2 -2 -4 -7
-5 -13 -1 -5 -3 -11 -5 -12 -3 -4 -9 -31 -12 -53 -3 -21 -10 -30 -42 -55 -12
-9 -17 -10 -12 -2 5 8 1 12 -10 12 -10 0 -14 3 -11 7 4 3 0 14 -9 24 -9 10
-17 29 -18 43 0 14 -5 26 -9 26 -5 0 -5 4 -2 10 3 5 2 18 -4 28 -6 10 -6 24
-1 32 5 8 5 19 1 25 -13 16 3 220 19 240 4 6 7 17 7 25 1 22 10 61 21 91 6 15
8 30 5 33 -4 3 -1 6 6 6 7 0 9 5 6 10 -3 6 -1 10 4 10 6 0 10 3 9 8 -3 13 13
53 31 73 9 11 15 23 13 26 -5 11 29 22 63 20 17 0 38 -9 49 -19z m-3526 -560
c9 -9 12 -9 12 3 1 7 8 1 17 -16 18 -32 25 -95 11 -95 -5 0 -6 -4 -3 -10 3 -5
1 -10 -6 -10 -7 0 -4 -7 7 -16 10 -8 13 -13 7 -9 -9 4 -13 -2 -14 -17 -4 -64
-21 -126 -46 -165 -8 -12 -14 -24 -14 -27 3 -20 0 -26 -10 -21 -6 4 -10 1 -9
-6 3 -21 -11 -59 -21 -59 -5 0 -8 -3 -7 -7 5 -14 -32 -93 -43 -93 -5 0 -7 -5
-4 -10 4 -6 1 -18 -6 -26 -6 -8 -8 -18 -4 -22 4 -4 10 -1 12 6 3 6 11 12 19
12 8 0 13 4 12 9 -3 10 40 51 54 51 4 0 7 3 6 8 -2 4 20 30 47 58 28 28 60 64
72 80 12 16 36 44 52 62 17 18 31 38 31 43 0 6 7 17 15 26 8 8 12 19 9 25 -4
6 -2 8 4 4 10 -6 28 29 24 46 -1 4 10 16 23 26 26 21 35 39 13 26 -8 -4 -10
-3 -5 2 5 5 12 8 15 7 12 -5 10 -108 -2 -115 -8 -5 -7 -8 2 -8 7 0 11 -4 8 -9
-7 -11 -15 -62 -20 -133 -2 -31 -7 -62 -11 -67 -3 -6 -1 -11 5 -11 7 0 7 -7
-1 -22 -7 -13 -12 -23 -12 -23 0 0 5 -10 11 -21 6 -12 8 -25 4 -29 -4 -3 -8
-50 -8 -103 -1 -92 -10 -151 -23 -162 -3 -3 -17 -26 -31 -52 -13 -27 -28 -48
-32 -48 -5 0 -8 -6 -8 -13 0 -7 -11 -25 -25 -40 -14 -15 -23 -27 -21 -27 3 0
-21 -27 -55 -60 -33 -33 -65 -60 -70 -60 -6 0 -7 -4 -4 -10 3 -5 -3 -10 -14
-10 -12 0 -21 -4 -21 -8 0 -8 -62 -42 -105 -57 -11 -4 -48 -9 -83 -10 -49 -3
-68 0 -82 13 -10 9 -25 22 -32 29 -33 30 -63 97 -60 136 0 9 -3 17 -7 17 -4 0
-6 51 -5 113 1 61 2 112 4 112 2 0 5 20 14 95 2 19 5 35 6 35 2 0 9 30 14 60
2 11 6 28 10 38 13 37 18 53 23 77 2 13 7 27 11 30 4 3 7 10 8 15 1 24 17 65
25 65 5 0 8 3 7 8 -1 4 3 17 10 30 7 12 9 22 5 22 -4 0 -3 4 2 8 6 4 22 28 35
55 14 26 29 47 33 47 5 0 6 4 3 8 -3 5 4 18 14 30 11 12 20 24 20 27 0 3 9 15
20 27 11 12 20 28 20 35 0 8 5 11 10 8 6 -3 10 -1 10 5 0 6 5 8 10 5 6 -3 10
-1 10 5 0 15 23 38 57 55 34 18 36 18 51 3z m1348 -13 c-3 -8 3 -16 12 -19 19
-7 44 -78 46 -132 0 -19 3 -34 6 -34 3 0 6 -50 6 -110 1 -73 -3 -109 -10 -107
-9 3 -36 -22 -73 -66 -6 -8 -9 -18 -6 -21 6 -6 -13 -10 -30 -7 -5 1 -6 -2 -3
-7 2 -4 1 -14 -4 -22 -6 -10 -1 -21 16 -37 14 -13 29 -23 33 -23 4 0 13 -11
19 -25 8 -17 8 -25 1 -25 -6 0 -8 -4 -4 -9 3 -5 1 -12 -4 -16 -6 -3 -8 -11 -5
-18 11 -31 -70 -83 -109 -71 -23 7 -54 34 -40 34 4 0 4 4 -2 8 -24 17 -33 75
-29 189 5 152 7 173 16 173 5 0 8 5 8 11 0 5 -6 7 -12 3 -8 -5 -8 -1 1 10 8
10 16 27 18 39 7 50 11 72 13 77 1 3 2 8 1 13 0 4 4 7 10 7 6 0 9 7 6 15 -4 8
-2 17 4 20 5 4 7 11 4 16 -4 5 -1 9 6 9 7 0 10 3 6 6 -7 7 29 81 49 102 8 7
14 17 14 21 0 4 9 7 21 8 14 1 19 -3 15 -12z"/>
<path d="M3948 6178 c-2 -4 -18 -8 -35 -10 -18 -1 -33 -6 -33 -11 0 -4 -4 -6
-8 -3 -4 2 -14 1 -22 -4 -9 -5 -20 -4 -29 3 -12 10 -13 9 -6 -2 6 -11 4 -13
-7 -8 -9 3 -21 0 -27 -6 -6 -6 -11 -7 -11 -3 0 5 -8 2 -17 -5 -11 -10 -14 -10
-9 -1 4 6 2 12 -3 12 -6 0 -11 -5 -11 -11 0 -5 -4 -8 -9 -4 -5 3 -12 1 -15 -3
-3 -5 -21 -8 -40 -7 -19 1 -33 -2 -30 -7 5 -7 -10 -12 -28 -9 -5 0 -8 -3 -8
-9 0 -5 -7 -7 -16 -3 -13 5 -15 0 -13 -23 2 -16 -2 -38 -9 -49 -6 -11 -12 -16
-12 -11 0 5 -8 2 -17 -5 -15 -12 -16 -12 -8 1 8 13 6 13 -8 2 -9 -8 -20 -11
-25 -8 -6 3 -17 -9 -26 -28 -12 -25 -24 -35 -46 -38 -16 -2 -34 0 -39 5 -5 5
-12 4 -16 -4 -5 -7 -4 -10 3 -5 7 4 10 -3 7 -21 -1 -16 3 -38 11 -50 8 -13 12
-23 10 -23 -3 0 -1 -13 4 -29 5 -19 4 -33 -3 -40 -8 -8 -7 -11 3 -11 10 0 9
-4 -3 -18 -10 -10 -17 -22 -17 -26 0 -11 -27 -36 -32 -30 -3 2 -10 -6 -15 -19
-9 -20 -8 -24 5 -24 10 0 25 7 36 16 10 9 20 14 22 11 2 -3 13 3 24 13 11 9
25 17 30 17 6 0 10 5 10 10 0 6 7 10 15 10 8 0 23 9 32 19 9 11 23 17 31 13
10 -3 13 -1 8 6 -4 7 -1 12 8 12 9 0 16 5 16 10 0 6 6 10 13 10 8 0 24 9 37
20 13 11 29 20 35 20 7 0 15 6 18 13 3 8 21 22 41 31 20 9 36 21 36 26 0 6 6
9 13 8 6 -2 11 2 10 9 -2 7 4 10 12 7 8 -4 15 -1 15 5 0 6 6 11 13 11 6 0 28
13 47 30 19 16 36 27 38 25 3 -2 11 3 19 11 8 8 19 11 25 8 7 -4 8 -2 4 4 -4
7 -2 12 4 12 6 0 22 11 36 25 14 14 30 23 35 20 5 -4 9 -2 9 4 0 5 9 13 21 16
11 4 18 9 15 12 -3 4 2 12 12 19 11 9 13 13 4 14 -8 0 -10 5 -5 13 20 32 -5
59 -33 36 -11 -9 -14 -9 -14 0 0 9 -5 9 -20 1 -11 -6 -20 -7 -20 -2 0 10 -39
10 -42 0z"/>
<path d="M1925 6122 c-16 -15 -98 -42 -132 -45 -18 -1 -33 -6 -33 -10 0 -5 -4
-6 -9 -2 -16 9 -22 -12 -7 -24 20 -17 68 -21 84 -8 8 6 21 12 30 13 52 5 107
36 107 60 0 20 -24 30 -40 16z"/>
<path d="M5106 6081 c-7 -11 29 -53 38 -44 3 3 6 1 6 -6 0 -7 5 -9 12 -5 6 4
8 3 5 -2 -8 -13 4 -32 23 -36 17 -3 40 -23 40 -33 0 -8 79 -85 89 -86 3 0 23
-21 44 -45 20 -25 37 -43 37 -40 0 3 13 -8 29 -24 15 -17 33 -30 40 -30 6 0
11 -4 11 -10 0 -5 11 -20 24 -33 14 -14 22 -28 18 -31 -3 -4 1 -4 11 0 11 4
17 1 17 -9 0 -9 9 -19 20 -22 11 -3 20 -11 20 -16 0 -11 25 -39 35 -39 10 0
65 -60 65 -71 0 -6 7 -9 15 -5 8 3 15 1 15 -5 0 -5 6 -4 14 3 11 11 6 21 -35
62 -27 27 -49 53 -49 58 0 5 -4 7 -9 3 -5 -3 -20 9 -32 27 -30 43 -40 52 -67
67 -12 7 -20 16 -17 21 3 5 -4 11 -15 15 -11 3 -20 13 -20 21 0 8 -3 14 -8 14
-4 0 -26 17 -49 38 -78 70 -105 92 -115 92 -5 0 -7 4 -4 8 3 5 -7 17 -21 28
-15 10 -40 34 -56 52 -17 17 -36 32 -44 32 -7 0 -13 5 -13 10 0 6 -6 10 -13
10 -7 0 -18 9 -25 20 -13 21 -27 26 -36 11z"/>
<path d="M2104 6048 c-4 -5 -4 -11 -1 -14 6 -6 37 6 37 15 0 11 -30 9 -36 -1z"/>
<path d="M2075 6030 c3 -5 8 -10 11 -10 2 0 4 5 4 10 0 6 -5 10 -11 10 -5 0
-7 -4 -4 -10z"/>
<path d="M2017 5996 c-16 -7 -33 -19 -38 -27 -5 -8 -9 -9 -9 -3 0 9 -38 12
-47 4 -2 -2 -6 -3 -10 -4 -29 -6 -52 -28 -46 -43 10 -26 36 -53 50 -53 7 0 13
-3 13 -8 0 -4 24 -33 54 -64 30 -31 52 -59 48 -62 -3 -3 3 -6 13 -6 10 0 16
-3 12 -6 -7 -8 31 -47 63 -64 29 -15 70 -20 70 -8 0 5 6 8 12 6 7 -3 21 4 32
13 10 10 23 16 27 13 4 -2 11 1 15 7 5 8 3 9 -6 4 -8 -5 -11 -3 -9 4 3 7 9 12
14 12 18 0 34 41 21 55 -6 6 -14 10 -17 8 -4 -2 -20 12 -35 32 -39 50 -104
117 -104 108 0 -4 -9 3 -19 15 -11 12 -21 21 -23 19 -8 -5 -37 29 -31 36 4 3
1 6 -6 6 -7 0 -9 5 -6 10 8 13 -3 12 -38 -4z"/>
<path d="M3080 5916 c0 -9 -3 -15 -7 -15 -21 3 -32 -3 -38 -20 -3 -10 -26 -26
-50 -37 -25 -10 -45 -21 -45 -25 0 -7 -39 -22 -52 -20 -5 1 -8 -3 -8 -7 0 -5
-20 -19 -45 -31 -39 -19 -44 -25 -35 -41 6 -10 15 -22 20 -25 6 -4 8 -10 5
-15 -14 -22 -16 -121 -3 -133 33 -32 123 -44 175 -22 17 7 35 10 39 7 4 -4 4
1 1 11 -4 10 -3 16 3 12 10 -6 81 61 72 69 -3 3 0 6 6 6 7 0 12 7 12 16 0 8 4
13 9 10 5 -3 12 1 15 9 3 8 9 14 13 13 14 -4 73 36 73 50 0 7 4 11 9 8 5 -3
11 1 14 8 8 20 -60 106 -84 106 -5 0 -7 5 -4 10 3 6 1 10 -6 10 -6 0 -22 12
-35 28 -13 15 -24 23 -24 18 0 -5 -7 -3 -15 4 -12 10 -15 10 -15 -4z"/>
<path d="M4510 5783 c-54 -15 -108 -44 -137 -75 -9 -9 -23 -14 -31 -10 -10 3
-13 1 -8 -6 4 -7 1 -12 -9 -12 -8 0 -18 -7 -21 -15 -4 -8 -11 -15 -18 -15 -6
0 -25 -12 -41 -27 -16 -16 -33 -27 -37 -25 -5 1 -8 -2 -8 -7 0 -5 -29 -26 -64
-47 -36 -21 -63 -41 -60 -45 2 -4 -4 -6 -13 -5 -10 2 -24 -5 -31 -16 -7 -10
-18 -16 -23 -13 -5 4 -9 1 -9 -4 0 -6 -7 -11 -15 -11 -8 0 -15 -4 -15 -10 0
-5 -7 -10 -15 -10 -8 0 -15 -4 -15 -9 0 -5 -13 -14 -30 -21 -16 -7 -27 -16
-24 -21 3 -5 0 -9 -6 -9 -14 0 -123 -71 -133 -87 -4 -7 -14 -13 -22 -13 -8 0
-19 -8 -24 -17 -6 -10 -11 -14 -11 -10 0 5 -19 -6 -42 -25 -23 -18 -39 -27
-34 -20 4 7 -10 1 -33 -15 -22 -15 -40 -31 -41 -35 0 -4 -11 -19 -24 -33 -14
-15 -23 -36 -22 -49 2 -24 40 -68 50 -58 3 3 6 0 6 -6 0 -7 3 -11 8 -10 17 5
52 -15 52 -29 0 -9 3 -14 6 -10 5 4 74 -58 74 -67 0 -9 190 -193 194 -188 3 3
6 -2 6 -12 0 -9 5 -14 10 -11 6 3 10 0 10 -9 0 -8 14 -26 30 -39 17 -14 30
-28 30 -31 0 -10 141 -146 150 -146 6 0 10 -4 10 -8 0 -11 38 -8 71 6 26 11
108 82 94 82 -4 0 9 14 30 30 21 17 45 28 52 25 8 -2 11 -1 8 5 -3 5 19 21 50
35 30 15 55 31 55 37 0 6 3 9 6 5 6 -5 15 0 49 31 8 7 19 11 24 8 5 -3 11 1
15 9 3 8 12 15 21 15 8 0 15 4 15 9 0 8 28 19 47 19 3 0 10 7 15 16 5 9 15 16
22 16 8 0 19 7 26 15 7 8 15 13 19 10 4 -2 18 6 32 18 14 12 31 23 39 25 8 2
17 8 18 13 2 5 7 7 12 4 4 -2 19 6 33 19 14 13 28 21 31 18 3 -3 6 0 6 7 0 7
4 10 8 7 5 -3 18 3 29 13 28 26 110 71 117 64 3 -4 6 -1 6 6 0 7 4 10 9 7 5
-3 23 8 41 24 18 17 35 30 39 30 19 0 77 38 73 48 -2 7 -8 12 -13 12 -14 0
-59 47 -59 61 0 7 -3 10 -6 6 -3 -3 -32 21 -64 53 -32 32 -61 56 -64 53 -3 -4
-6 -2 -6 4 0 5 -13 24 -30 41 -16 18 -30 34 -30 38 0 10 -104 109 -112 107 -5
-2 -8 1 -8 6 0 5 -9 13 -20 16 -11 4 -18 10 -15 14 2 5 -6 17 -20 27 -13 10
-22 21 -19 26 3 4 -1 8 -9 8 -7 0 -31 18 -53 41 -136 143 -163 163 -204 152z"/>
<path d="M2749 5708 c-12 -13 -18 -16 -14 -8 7 12 6 13 -7 3 -8 -7 -18 -10
-21 -6 -4 3 -7 -2 -7 -12 0 -10 -3 -16 -6 -12 -6 6 -106 -45 -135 -70 -9 -7
-19 -10 -22 -6 -4 3 -7 1 -7 -6 0 -7 -5 -9 -10 -6 -6 3 -13 -1 -16 -9 -3 -9
-10 -13 -15 -10 -5 3 -9 0 -9 -7 0 -7 -3 -10 -6 -6 -4 3 -26 -5 -49 -18 -24
-13 -46 -21 -49 -18 -3 4 -6 1 -6 -6 0 -8 -7 -10 -20 -6 -11 3 -20 3 -20 -2 0
-4 -18 -9 -41 -10 -27 -1 -47 -8 -60 -22 -19 -20 -18 -21 51 -92 39 -39 70
-75 70 -79 0 -10 69 -43 93 -45 10 -1 20 2 23 7 3 4 14 8 24 8 10 0 25 8 32
18 7 10 26 19 41 20 31 2 83 42 55 42 -25 0 -34 41 -13 56 10 8 22 11 26 8 22
-13 5 12 -36 53 -25 24 -48 55 -51 68 -6 26 12 69 26 60 5 -3 11 -1 15 5 3 5
15 10 26 10 11 0 22 7 25 15 4 8 10 13 14 10 5 -3 11 -1 15 5 4 6 11 7 17 4 6
-4 8 -3 5 3 -3 5 16 16 43 23 27 7 47 17 44 22 -3 4 0 8 5 8 6 0 11 7 11 15 0
21 -16 19 -41 -7z"/>
<path d="M3113 5489 c-37 -24 -39 -26 -18 -26 8 0 16 6 19 14 3 7 12 13 21 13
8 0 15 5 15 10 0 13 0 13 -37 -11z"/>
<path d="M3022 5439 c-13 -5 -20 -13 -17 -19 3 -5 -2 -10 -11 -10 -13 0 -15
-3 -7 -11 15 -15 36 -1 28 18 -5 14 -3 14 12 2 9 -8 14 -9 10 -2 -4 6 -1 13 5
16 7 2 11 7 8 9 -3 3 -15 2 -28 -3z"/>
<path d="M2922 5374 c-13 -9 -10 -11 15 -10 17 0 29 4 27 8 -2 3 2 8 8 11 7 3
2 4 -11 4 -13 -1 -30 -7 -39 -13z"/>
<path d="M2697 5243 c-12 -3 -16 -10 -12 -21 5 -14 4 -14 -6 -5 -10 10 -16 10
-28 0 -12 -9 -13 -9 -7 1 4 6 3 12 -3 12 -5 0 -11 -4 -13 -10 -1 -5 -14 -11
-28 -14 -14 -2 -27 -5 -30 -6 -3 -2 -8 -2 -12 -1 -5 0 -8 -4 -8 -10 0 -5 -5
-7 -12 -3 -7 4 -8 3 -4 -4 4 -8 15 -8 31 -2 16 6 27 6 31 -2 5 -8 10 -7 18 3
6 8 24 15 40 16 16 1 38 10 49 20 11 10 17 12 13 6 -5 -9 -2 -11 8 -7 9 3 14
10 11 14 -3 5 1 11 7 13 16 7 -20 6 -45 0z"/>
<path d="M2310 5033 c0 -6 -22 -9 -52 -8 -29 1 -58 -2 -65 -7 -7 -5 -14 -5
-18 2 -3 6 -11 8 -16 4 -5 -3 -57 -7 -115 -9 -58 -2 -108 -6 -111 -9 -4 -3 5
-16 18 -28 14 -13 52 -54 85 -93 73 -86 95 -111 242 -273 17 -20 32 -43 32
-51 0 -8 3 -12 6 -8 8 7 68 -53 77 -76 4 -10 13 -17 22 -17 8 0 14 -3 13 -7
-5 -15 117 -144 162 -173 13 -8 30 -22 39 -30 9 -8 27 -21 41 -28 22 -11 55
-33 115 -78 11 -8 24 -14 28 -14 5 1 16 -7 25 -17 42 -45 85 -67 126 -64 20 1
20 1 0 19 -10 9 -31 23 -46 31 -16 8 -28 18 -28 23 0 4 -6 8 -14 8 -8 0 -21 8
-28 19 -7 10 -17 20 -23 21 -31 8 -54 24 -48 34 3 6 3 8 -2 4 -7 -6 -23 4 -82
52 -7 6 -16 10 -20 10 -4 0 -19 12 -32 25 -13 14 -26 24 -28 21 -3 -3 -46 37
-96 88 -104 106 -169 176 -162 176 3 0 -3 8 -12 18 -10 11 -20 18 -23 16 -3
-1 -7 9 -8 22 -1 15 2 22 8 19 6 -3 10 -1 10 5 0 8 6 8 20 0 11 -6 20 -8 20
-5 0 3 15 -5 33 -18 54 -40 61 -43 47 -17 -6 12 -9 24 -6 27 11 11 -28 37 -56
37 -22 -1 -32 5 -43 26 -8 15 -11 30 -8 34 4 3 1 6 -6 6 -7 0 -9 5 -6 10 3 6
-1 10 -9 10 -14 0 -86 109 -86 129 0 13 -29 21 -35 11 -9 -14 3 -30 21 -30 8
0 13 -4 9 -9 -3 -5 -1 -12 4 -15 5 -3 7 -19 6 -36 -1 -16 0 -30 4 -30 4 0 8
-12 9 -26 2 -22 -1 -24 -21 -18 -12 4 -23 10 -25 15 -2 5 -16 22 -30 38 -15
16 -43 48 -62 72 -19 23 -43 51 -52 62 -35 40 -11 51 130 60 6 0 12 5 12 11 0
6 5 4 10 -4 5 -8 10 -10 10 -5 0 6 19 11 42 13 43 3 68 16 55 29 -4 3 -7 2 -7
-4z"/>
<path d="M2514 4873 c-8 -8 -14 -17 -15 -21 0 -4 -2 -15 -4 -25 -2 -9 1 -15 6
-11 5 3 9 -4 9 -15 0 -11 5 -23 10 -26 6 -4 8 -11 5 -16 -4 -5 1 -9 9 -9 9 0
16 -6 16 -13 0 -7 8 -20 18 -28 9 -9 24 -26 32 -37 8 -12 23 -25 32 -28 10 -3
16 -10 13 -15 -4 -5 -2 -9 4 -9 5 0 28 -18 50 -39 23 -22 41 -36 41 -33 0 4 7
-2 15 -12 8 -11 15 -17 15 -13 0 3 15 -8 33 -26 19 -18 31 -36 29 -41 -3 -5 0
-6 5 -3 6 4 24 -4 39 -18 77 -66 143 -113 150 -107 4 4 4 2 0 -5 -4 -7 3 -17
16 -24 23 -12 36 -22 71 -54 12 -11 41 -32 65 -48 23 -15 42 -32 42 -37 0 -6
9 -10 19 -10 11 0 21 -5 23 -12 2 -6 15 0 31 16 15 14 30 27 34 27 5 1 7 5 6
9 -1 5 11 13 28 19 17 6 28 15 24 21 -3 5 2 10 12 10 15 0 16 2 3 10 -13 8
-12 10 4 10 12 0 16 5 12 16 -3 9 -6 20 -6 25 0 5 -7 9 -15 9 -8 0 -15 5 -15
10 0 6 -5 10 -10 10 -11 0 -24 9 -60 42 -10 9 -21 14 -24 11 -3 -4 -6 0 -6 7
0 7 -3 11 -6 7 -3 -3 -15 3 -27 13 -11 11 -24 17 -29 14 -5 -3 -7 0 -6 8 2 7
-7 14 -19 16 -13 2 -23 10 -23 19 0 9 -3 14 -6 10 -4 -3 -12 -1 -20 6 -33 30
-44 37 -44 31 0 -4 -8 3 -19 14 -10 12 -23 22 -30 22 -6 0 -11 5 -11 10 0 6
-7 10 -15 10 -8 0 -15 5 -15 10 0 6 -9 10 -20 10 -11 0 -19 4 -18 9 2 5 0 9
-5 10 -4 0 -17 10 -30 21 -36 34 -99 80 -108 80 -8 0 -17 6 -71 53 -25 20 -32
22 -22 5 9 -16 -33 18 -63 51 -13 13 -23 21 -23 17 0 -3 -14 7 -31 23 -33 32
-80 38 -105 14z"/>
<path d="M2460 4580 c8 -5 11 -12 8 -16 -8 -8 16 -34 31 -34 6 0 11 -4 11 -10
0 -5 5 -10 10 -10 14 0 8 23 -10 37 -8 7 -11 13 -6 13 16 0 -28 29 -44 30 -13
0 -13 -1 0 -10z"/>
<path d="M2530 4491 c0 -6 4 -12 8 -15 5 -3 9 1 9 9 0 8 -4 15 -9 15 -4 0 -8
-4 -8 -9z"/>
<path d="M2594 4438 c-4 -6 1 -17 11 -25 11 -7 15 -13 9 -13 -5 0 14 -12 41
-26 28 -15 52 -30 55 -34 5 -7 42 -22 49 -20 2 1 12 -11 22 -27 10 -15 19 -23
19 -18 0 6 5 2 11 -7 5 -10 14 -18 20 -18 5 0 22 -11 36 -24 14 -13 32 -22 39
-19 8 3 14 0 14 -6 0 -6 11 -17 25 -23 15 -7 24 -17 21 -25 -3 -8 -1 -11 4 -8
6 3 10 13 10 20 0 16 -34 38 -44 28 -3 -3 -6 3 -6 15 0 13 -6 22 -16 22 -8 0
-12 5 -9 10 3 6 1 10 -4 10 -6 0 -11 7 -11 15 0 8 -3 15 -7 16 -41 4 -100 35
-81 42 7 3 -2 6 -20 6 -19 1 -31 5 -27 11 3 5 0 7 -7 5 -9 -4 -19 7 -28 30 -8
20 -21 35 -30 35 -8 0 -22 9 -30 20 -16 22 -55 27 -66 8z"/>
<path d="M8320 4074 c-26 -13 -80 -26 -112 -28 -10 0 -18 -4 -18 -8 0 -4 -9
-5 -20 -3 -11 2 -20 1 -20 -3 0 -4 -8 -8 -17 -8 -31 -1 -107 -14 -140 -23 -17
-5 -34 -7 -37 -3 -3 3 -6 1 -6 -5 0 -5 -14 -9 -30 -8 -17 1 -33 -2 -36 -6 -2
-5 -11 -6 -19 -2 -8 3 -15 1 -15 -4 0 -5 -10 -10 -22 -11 -13 0 -34 -3 -48 -6
-14 -3 -33 -7 -42 -9 -10 -2 -21 -6 -24 -10 -4 -4 -14 -1 -22 6 -13 10 -14 9
-7 -2 6 -11 3 -13 -13 -9 -13 4 -22 1 -22 -5 0 -6 -3 -8 -6 -4 -3 3 -16 2 -28
-3 -13 -4 -40 -11 -62 -15 -21 -4 -49 -9 -61 -11 -13 -2 -33 -6 -45 -8 -13 -2
-30 -6 -38 -9 -8 -3 -31 -8 -50 -11 -19 -3 -50 -10 -69 -15 -19 -6 -38 -8 -42
-5 -5 3 -9 1 -9 -4 0 -5 -6 -9 -12 -10 -46 -5 -77 -11 -100 -21 -16 -6 -28 -7
-28 -4 0 4 -5 2 -12 -5 -7 -7 -17 -8 -30 -1 -11 6 -18 6 -18 0 0 -5 -8 -8 -17
-6 -10 1 -22 0 -28 -3 -5 -3 -16 -7 -25 -8 -33 -5 -74 -15 -89 -23 -9 -5 -22
-6 -28 -4 -7 3 -13 1 -13 -4 0 -4 -11 -9 -25 -10 -14 -1 -36 -4 -50 -5 -14 -1
-25 -5 -25 -8 0 -4 -6 -7 -12 -8 -7 0 -29 -4 -48 -7 -19 -4 -42 -8 -50 -9 -8
-2 -28 -8 -43 -15 -16 -6 -33 -9 -38 -5 -5 3 -9 0 -9 -5 0 -6 -3 -10 -7 -9 -5
1 -28 -2 -53 -7 -25 -5 -48 -8 -52 -7 -5 1 -8 -2 -8 -6 0 -4 -10 -9 -22 -10
-26 -2 -63 -10 -63 -12 0 -1 -7 -3 -15 -5 -72 -19 -90 -22 -94 -17 -4 3 -6 1
-6 -4 0 -6 -10 -10 -22 -11 -13 -1 -36 -4 -53 -8 -16 -4 -36 -8 -42 -8 -7 0
-13 -4 -13 -8 0 -4 -11 -6 -25 -4 -14 1 -25 -1 -25 -4 0 -4 -8 -8 -17 -9 -25
-2 -45 -8 -65 -16 -9 -4 -22 -5 -28 -1 -5 3 -10 2 -10 -2 0 -8 -15 -12 -57
-15 -7 -1 -13 -5 -13 -9 0 -4 -9 -8 -20 -8 -11 -1 -29 -1 -40 -2 -11 0 -20 -4
-20 -9 0 -4 -11 -7 -25 -5 -14 1 -28 -2 -31 -7 -3 -4 -10 -6 -15 -3 -5 4 -9 2
-9 -4 0 -5 -8 -10 -17 -10 -50 -2 -73 -6 -73 -11 0 -5 -22 -10 -62 -13 -10 -1
-18 -5 -18 -10 0 -5 -6 -7 -14 -4 -8 3 -17 3 -20 -1 -4 -3 -12 -7 -19 -8 -7
-2 -23 -6 -37 -9 -14 -4 -36 -8 -50 -10 -14 -1 -38 -7 -53 -14 -16 -6 -37 -11
-47 -11 -10 0 -21 -4 -25 -9 -3 -6 -14 -8 -25 -6 -11 2 -20 0 -20 -5 0 -5 -7
-7 -15 -4 -8 4 -15 2 -15 -2 0 -5 -14 -10 -31 -11 -17 -1 -37 -7 -44 -13 -6
-5 -14 -8 -16 -5 -3 2 -23 -1 -45 -7 -21 -6 -42 -13 -46 -14 -5 -1 -9 -2 -10
-4 -4 -2 -40 -10 -60 -12 -10 -1 -18 -5 -18 -8 0 -3 -8 -6 -17 -7 -22 -1 -50
-8 -120 -28 -29 -9 -59 -13 -65 -9 -7 4 -8 3 -4 -4 4 -7 1 -12 -6 -13 -7 0
-24 -3 -38 -5 -14 -2 -31 -5 -37 -6 -7 -1 -13 -5 -13 -10 0 -6 -6 -8 -12 -5
-7 2 -31 -2 -53 -10 -22 -8 -53 -16 -69 -19 -16 -2 -32 -7 -35 -12 -3 -5 -14
-8 -23 -6 -10 1 -20 -2 -24 -7 -3 -5 -10 -7 -15 -3 -5 3 -15 1 -22 -4 -7 -6
-15 -11 -19 -11 -5 -1 -10 -2 -13 -2 -3 -1 -13 -2 -22 -4 -10 -1 -25 -5 -33
-8 -8 -4 -26 -9 -40 -11 -14 -3 -25 -5 -25 -6 0 -1 -11 -3 -25 -6 -14 -2 -32
-7 -40 -11 -8 -3 -21 -5 -29 -4 -7 1 -11 -2 -7 -7 3 -5 -5 -8 -17 -7 -12 1
-27 -2 -33 -7 -7 -5 -16 -8 -20 -7 -5 1 -12 0 -16 -1 -5 -1 -11 -3 -15 -5 -5
-1 -15 -4 -23 -7 -29 -12 -155 -43 -162 -40 -5 1 -8 -3 -8 -8 0 -5 -3 -9 -7
-8 -10 2 -75 -13 -88 -20 -5 -4 -19 -8 -30 -9 -11 -2 -27 -6 -35 -10 -19 -8
-29 -11 -62 -18 -15 -3 -40 -10 -55 -16 -16 -6 -41 -13 -58 -16 -16 -3 -32 -9
-33 -14 -2 -5 -7 -7 -12 -4 -4 3 -26 -2 -49 -10 -23 -8 -41 -12 -41 -8 0 3 -6
1 -12 -5 -7 -6 -16 -11 -20 -11 -5 -1 -9 -1 -10 -2 -3 -1 -25 -6 -50 -12 -7
-2 -23 -9 -35 -15 -16 -9 -23 -9 -23 -2 0 6 -8 4 -17 -6 -12 -11 -18 -13 -21
-5 -3 9 -8 9 -19 0 -8 -7 -27 -13 -43 -14 -16 -1 -34 -6 -42 -11 -7 -5 -22 -9
-33 -9 -11 0 -22 -2 -25 -5 -4 -5 -68 -22 -195 -53 -5 -1 -16 -7 -24 -11 -10
-7 -12 -6 -6 4 6 10 4 11 -6 4 -8 -4 -18 -9 -24 -11 -5 -1 -21 -5 -35 -8 -14
-4 -31 -7 -37 -7 -7 -1 -13 -5 -13 -9 0 -4 -9 -6 -20 -4 -11 2 -20 -1 -20 -7
0 -5 -6 -8 -14 -5 -8 3 -17 3 -20 -1 -8 -7 -33 -13 -63 -16 -13 0 -23 -5 -23
-10 0 -4 -7 -6 -15 -3 -8 4 -17 2 -20 -3 -4 -6 -17 -10 -31 -10 -13 0 -24 -4
-24 -9 0 -6 -9 -8 -20 -6 -11 2 -20 1 -20 -3 0 -4 -9 -8 -20 -9 -11 -1 -34 -9
-51 -17 -18 -9 -35 -13 -40 -10 -5 3 -9 1 -9 -4 0 -5 -6 -9 -12 -10 -15 -1
-52 -10 -55 -12 -2 -2 -7 -4 -13 -5 -5 -1 -13 -4 -17 -5 -5 -1 -11 -2 -15 -1
-5 0 -8 -4 -8 -10 0 -5 -4 -7 -10 -4 -5 3 -16 3 -22 -2 -7 -4 -22 -9 -33 -10
-11 -2 -29 -7 -40 -12 -24 -11 -118 -46 -125 -46 -3 0 -11 -4 -17 -8 -7 -5
-13 -5 -13 -2 0 3 -10 -1 -22 -9 -12 -9 -28 -16 -35 -16 -6 0 -22 -4 -35 -9
-13 -5 -26 -9 -31 -10 -4 0 -20 -7 -36 -15 -16 -9 -31 -12 -35 -9 -3 4 -6 0
-6 -8 0 -11 -2 -11 -10 1 -8 13 -10 13 -10 -2 0 -11 -5 -15 -15 -12 -8 4 -15
2 -15 -3 0 -6 -18 -15 -40 -22 -22 -6 -40 -16 -40 -22 0 -6 -5 -7 -10 -4 -6 4
-17 1 -25 -5 -8 -7 -15 -9 -15 -5 0 4 -6 2 -13 -4 -8 -6 -17 -8 -20 -4 -4 3
-7 2 -7 -4 0 -10 -36 -26 -52 -24 -5 1 -8 -4 -8 -10 0 -5 -4 -7 -10 -4 -5 3
-10 2 -10 -2 0 -5 -8 -9 -17 -9 -23 -1 -47 -7 -53 -14 -8 -9 -140 -70 -150
-70 -6 0 -10 -3 -10 -7 0 -5 -13 -17 -29 -28 -16 -10 -27 -23 -25 -27 3 -4 1
-8 -5 -8 -10 0 -10 -18 2 -37 4 -6 2 -13 -5 -15 -9 -3 -8 -9 5 -22 9 -10 17
-22 17 -27 0 -14 56 -66 90 -84 17 -9 30 -13 30 -9 0 4 7 1 15 -6 8 -6 18 -9
24 -6 5 3 12 0 14 -6 4 -10 6 -10 6 0 1 7 6 10 12 6 6 -3 15 0 20 7 6 9 9 10
9 2 0 -14 43 -11 62 4 7 6 22 13 33 15 11 1 26 9 34 16 7 7 19 11 27 8 7 -3
14 -1 16 4 2 5 10 10 18 12 8 2 17 5 20 9 12 13 92 49 100 44 5 -3 13 3 19 12
6 10 11 15 11 10 0 -4 15 0 33 10 17 9 35 16 40 15 4 -1 7 2 7 7 0 5 10 12 23
16 12 4 25 8 30 10 18 6 22 7 30 6 4 0 7 3 7 9 0 5 7 7 15 4 8 -4 15 -1 15 5
0 6 9 11 20 11 11 0 20 4 20 10 0 5 3 9 8 9 4 -1 10 0 15 1 4 1 10 3 15 5 4 1
20 7 35 13 16 7 33 12 38 12 5 0 9 5 9 11 0 5 5 7 10 4 6 -4 18 -1 26 6 15 12
34 19 62 21 6 1 12 6 12 11 0 5 9 7 20 4 11 -3 18 -1 14 4 -3 5 4 9 15 9 10 0
21 4 23 9 2 6 16 12 32 15 16 3 33 11 38 18 6 10 8 10 8 -2 0 -10 3 -11 8 -4
6 10 70 42 97 48 51 12 95 28 100 36 3 5 12 7 20 3 8 -3 15 -1 15 4 0 7 69 33
105 38 10 2 26 8 100 40 22 9 51 19 64 21 13 3 31 9 40 13 9 5 18 9 21 9 15 1
46 17 52 26 5 8 8 8 8 0 0 -8 14 -5 38 7 20 11 54 22 74 26 21 3 38 9 38 12 0
4 10 8 22 8 13 1 24 7 26 13 2 5 7 8 12 5 4 -3 24 2 44 10 20 8 36 12 36 9 0
-4 6 -1 13 5 8 6 24 13 38 15 13 3 26 5 29 6 3 2 8 2 13 1 4 0 7 4 7 10 0 5 4
8 9 5 5 -3 25 1 45 9 20 8 36 13 36 10 0 -3 10 0 23 7 22 12 42 18 65 20 6 1
12 5 12 10 0 5 5 6 10 3 6 -3 16 -3 23 2 6 4 18 9 25 10 22 5 37 10 54 17 9 4
22 5 28 1 5 -3 10 -1 10 4 0 6 9 11 20 11 11 0 20 5 20 11 0 5 4 8 9 5 5 -3
51 8 102 25 91 30 131 41 156 42 7 0 15 7 18 15 4 11 8 12 19 3 11 -9 17 -9
27 1 13 12 29 17 67 20 6 1 12 5 12 10 0 5 4 7 9 4 5 -3 24 0 42 8 19 7 40 11
48 8 8 -3 11 0 7 7 -5 7 2 11 18 11 14 0 27 4 30 9 3 4 17 7 31 6 14 -2 25 1
25 7 0 6 7 8 15 4 8 -3 15 -1 15 5 0 6 7 9 15 5 8 -3 15 -2 15 3 0 4 7 8 15 9
8 1 22 3 30 4 8 1 15 4 15 8 0 4 11 6 25 5 14 -2 25 1 25 7 0 6 6 8 14 5 7 -3
19 0 25 6 6 6 11 7 11 3 0 -5 6 -4 13 2 12 10 54 22 85 24 6 1 12 4 12 8 0 3
8 7 18 8 18 2 53 9 62 12 3 1 9 2 14 1 4 -1 14 4 22 10 8 7 17 9 21 6 3 -4 12
-2 20 4 7 6 13 8 13 5 0 -4 8 -2 18 3 11 6 32 12 47 15 16 3 32 11 37 18 6 10
8 10 8 -2 0 -12 2 -13 9 -1 5 7 14 10 20 7 6 -4 11 -3 11 1 0 8 19 13 63 16 9
1 17 5 17 10 0 5 6 7 14 4 7 -3 19 0 25 6 6 6 11 7 11 3 0 -5 6 -3 14 3 8 6
18 11 22 10 11 -3 97 23 104 31 3 3 16 6 30 7 24 2 59 9 70 14 3 1 10 3 15 4
6 1 37 9 70 19 33 10 68 20 78 22 9 2 26 6 36 8 11 3 28 9 39 15 11 6 22 8 25
5 3 -3 14 -1 24 4 10 6 32 12 48 15 17 3 48 11 70 18 22 7 42 13 45 14 3 0 11
4 18 8 6 5 12 6 12 3 0 -3 23 2 52 10 73 22 89 26 121 28 15 0 27 4 27 7 0 8
69 23 88 20 6 -1 12 2 12 8 0 5 11 8 25 6 14 -1 25 2 25 7 0 5 4 7 9 3 5 -3
12 -1 16 5 3 5 11 10 16 10 6 0 7 -5 4 -11 -8 -13 37 12 47 26 5 6 8 5 8 -4 0
-11 3 -11 15 -1 8 7 15 9 15 5 0 -4 6 -2 14 4 7 6 21 9 30 5 9 -3 16 -2 16 3
0 5 6 10 13 11 6 0 28 4 47 8 19 4 43 7 53 8 9 0 17 4 17 9 0 4 4 6 9 3 5 -4
21 -2 35 4 15 5 40 11 56 12 17 1 30 5 30 9 0 4 11 6 25 3 14 -2 36 3 50 12
20 13 25 13 25 3 0 -10 2 -11 8 -2 4 6 21 14 37 17 17 2 31 5 33 6 1 2 11 4
22 5 11 1 21 3 23 5 1 1 9 3 17 5 53 11 79 17 105 22 46 8 60 11 63 13 1 2 7
4 12 5 6 1 11 4 13 5 1 1 13 3 27 5 14 2 39 7 55 10 17 4 37 8 45 10 8 2 15 4
15 6 0 1 11 2 25 3 14 1 30 4 35 8 6 3 18 4 28 3 9 -2 17 1 17 6 0 5 3 8 8 7
4 -1 30 1 57 6 72 11 85 14 103 21 9 4 31 9 47 10 17 2 46 6 65 10 19 4 43 8
53 9 9 0 17 3 17 6 0 3 10 6 23 7 27 0 65 9 91 19 15 6 18 4 12 -7 -4 -8 0 -5
8 5 9 11 16 15 16 8 0 -8 7 -9 26 -2 14 6 30 8 35 4 5 -3 9 -1 9 3 0 5 10 9
23 10 12 1 36 4 52 8 37 8 91 16 128 18 15 1 27 5 27 9 0 4 8 7 18 7 9 0 31 2
47 5 17 2 40 4 53 5 13 1 21 4 19 9 -3 4 9 7 26 8 42 0 113 13 145 25 37 14
93 59 87 69 -2 4 2 13 10 20 8 7 12 17 8 24 -4 6 -9 19 -10 28 -6 38 -9 44
-28 58 -23 17 -72 22 -81 8 -4 -6 -9 -6 -13 -1 -3 5 -17 4 -31 -3z"/>
<path d="M6957 3463 c-4 -4 -14 -8 -22 -10 -35 -7 -41 -9 -52 -16 -7 -5 -18
-5 -23 -2 -6 4 -9 3 -8 -2 4 -12 -39 -52 -48 -45 -4 4 -4 2 -1 -4 7 -13 -27
-57 -36 -48 -3 4 -9 -6 -13 -20 -3 -15 -9 -25 -12 -22 -3 3 -18 -12 -34 -34
-17 -22 -34 -40 -39 -40 -6 0 -7 -4 -4 -10 3 -5 -1 -10 -10 -10 -9 0 -13 -4
-10 -10 3 -5 1 -10 -4 -10 -6 0 -11 -7 -11 -16 0 -8 -3 -13 -7 -11 -5 3 -17
-6 -28 -20 -45 -55 -124 -132 -161 -157 -21 -14 -52 -41 -68 -61 -16 -19 -34
-35 -39 -35 -5 0 -16 -8 -23 -17 -12 -17 -14 -17 -36 5 l-22 22 22 0 c21 0 22
1 8 16 -20 19 -20 25 -1 18 11 -5 13 -2 9 10 -3 9 -1 16 4 16 6 0 9 9 7 20 -2
11 0 20 6 20 5 0 9 5 9 11 0 5 -6 7 -12 4 -7 -4 -6 -1 2 7 9 7 14 28 13 48 -1
19 3 40 8 47 7 7 6 14 -1 18 -8 5 -7 11 1 22 10 12 10 16 -2 24 -12 7 -12 9 1
9 9 0 11 3 5 8 -5 4 -12 18 -13 32 -2 14 -11 33 -20 44 -18 19 -72 50 -72 41
0 -3 -10 0 -22 7 -13 7 -29 11 -37 9 -17 -3 -56 -39 -56 -52 0 -5 -6 -13 -13
-18 -8 -5 -13 -11 -13 -15 1 -3 -5 -21 -13 -40 -7 -18 -17 -47 -21 -65 -3 -17
-10 -31 -15 -31 -4 0 -6 -9 -3 -20 3 -11 1 -20 -5 -20 -6 0 -9 -11 -7 -25 1
-14 -1 -25 -5 -25 -4 0 -11 -7 -14 -16 -3 -8 -2 -12 4 -9 5 3 3 -6 -5 -21 -7
-14 -12 -35 -10 -46 3 -15 0 -18 -11 -14 -9 3 -18 6 -21 6 -3 0 0 7 7 15 6 8
8 20 4 27 -9 14 -12 58 -4 58 3 0 5 11 5 25 0 14 -3 25 -6 25 -4 0 -10 12 -13
26 -6 24 -82 104 -99 104 -5 0 -20 9 -34 20 -14 11 -30 17 -35 14 -5 -3 -15
-1 -21 5 -9 7 -21 6 -39 -3 -15 -8 -29 -12 -32 -8 -3 3 -6 1 -6 -4 0 -5 -10
-11 -22 -11 -13 -1 -24 -7 -26 -13 -2 -5 -9 -7 -14 -4 -6 4 -16 0 -22 -8 -6
-8 -21 -20 -34 -27 -12 -7 -20 -17 -16 -23 4 -7 3 -8 -4 -4 -6 4 -19 -2 -29
-13 -9 -11 -19 -19 -22 -17 -3 1 -16 -8 -28 -21 -12 -13 -20 -23 -17 -23 3 0
-6 -11 -20 -25 -13 -13 -27 -34 -31 -45 -4 -11 -11 -18 -16 -15 -5 4 -9 -3 -9
-14 0 -11 -7 -26 -15 -35 -8 -8 -15 -19 -15 -25 0 -6 -5 -11 -10 -11 -6 0 -9
-3 -8 -7 1 -5 -10 -31 -25 -60 -15 -29 -27 -59 -27 -68 0 -8 -5 -15 -11 -15
-5 0 -8 -3 -6 -7 3 -5 0 -19 -6 -33 -9 -23 -14 -57 -20 -130 -1 -14 -6 -28
-12 -32 -6 -5 -5 -8 3 -8 10 0 10 -5 2 -20 -8 -14 -8 -20 0 -20 6 0 8 -5 4
-12 -11 -18 -12 -48 -2 -48 4 0 8 -12 8 -26 0 -17 4 -23 12 -18 8 5 9 2 5 -10
-4 -9 -3 -15 1 -13 4 2 19 -9 35 -24 l27 -28 -24 -16 c-13 -9 -34 -17 -45 -18
-12 -1 -21 -5 -21 -9 0 -4 -3 -7 -7 -7 -5 1 -10 0 -13 -1 -6 -2 -38 -10 -60
-15 -63 -13 -80 -19 -80 -29 0 -6 -5 -4 -10 4 -5 8 -10 10 -10 4 0 -11 -36
-28 -54 -25 -4 1 -13 -2 -20 -7 -6 -4 -18 -8 -26 -7 -8 0 -18 -3 -21 -8 -4 -5
-28 11 -54 37 -26 25 -51 43 -55 41 -5 -3 -15 1 -23 9 -8 9 -19 11 -27 6 -8
-5 -18 -6 -22 -4 -4 3 -8 0 -8 -5 0 -6 -6 -11 -14 -11 -8 0 -31 -15 -50 -34
-20 -18 -36 -32 -36 -30 0 2 -9 -5 -21 -17 -11 -11 -19 -23 -16 -25 10 -10
-42 -56 -54 -48 -9 5 -11 1 -7 -14 6 -22 -10 -26 -25 -7 -10 14 -4 -36 7 -54
6 -10 5 -12 -2 -7 -7 4 -12 1 -12 -9 0 -9 4 -14 8 -11 5 3 8 -7 6 -22 -1 -15
-2 -37 -3 -49 -1 -12 -8 -28 -16 -37 -8 -8 -15 -20 -15 -26 0 -6 -5 -8 -12 -4
-8 5 -9 2 -5 -10 4 -10 3 -15 -3 -11 -6 3 -10 1 -10 -4 0 -17 -30 -13 -36 4
-4 8 -10 12 -15 9 -5 -3 -9 1 -9 10 0 8 -6 17 -12 19 -8 3 -5 6 5 6 11 1 15 5
11 13 -5 7 -2 9 8 6 8 -4 15 -1 16 5 3 45 13 82 22 85 5 2 10 13 10 24 0 16 5
19 23 16 15 -3 24 0 24 8 0 7 -6 10 -13 7 -8 -3 -12 3 -11 15 0 12 5 18 9 16
16 -10 7 12 -16 38 -12 15 -34 29 -47 30 -13 2 -27 7 -31 13 -4 5 -16 1 -28
-10 -16 -14 -21 -15 -18 -5 2 8 12 21 23 28 19 13 19 13 -5 8 -25 -5 -25 -5 5
21 16 14 30 35 30 47 0 12 4 27 9 34 4 7 5 16 2 19 -3 3 2 12 12 20 10 9 11
11 2 7 -13 -7 -13 -5 -1 9 7 9 10 17 5 17 -4 0 -3 5 3 11 6 6 9 18 6 25 -3 8
0 21 7 29 9 11 9 15 1 15 -9 0 -9 5 0 21 8 16 8 20 -1 14 -9 -6 -9 -2 -1 14 9
16 9 21 0 21 -8 0 -8 4 1 15 7 8 8 20 4 27 -5 7 -9 29 -10 48 -3 61 -4 63 -61
111 -10 8 -24 14 -31 11 -7 -2 -12 0 -12 5 0 5 -13 9 -29 9 -17 0 -28 -3 -25
-7 2 -4 -5 -10 -16 -14 -11 -4 -18 -10 -15 -14 2 -5 -4 -16 -15 -26 -11 -10
-17 -21 -15 -25 3 -4 -2 -13 -10 -20 -8 -7 -12 -16 -9 -21 3 -5 1 -9 -4 -9 -9
0 -39 -79 -34 -92 1 -5 -2 -8 -8 -8 -5 0 -10 -6 -10 -14 0 -8 -5 -27 -12 -43
-10 -25 -14 -45 -20 -90 -1 -7 -5 -13 -9 -13 -5 0 -6 -7 -3 -15 4 -8 2 -15 -4
-15 -6 0 -8 -9 -5 -20 3 -11 1 -20 -3 -20 -5 0 -10 -19 -11 -43 -2 -23 -5 -51
-7 -62 -3 -11 -5 -24 -5 -28 -1 -5 -5 -6 -9 -3 -5 3 -6 -8 -4 -24 3 -23 0 -32
-17 -38 -23 -8 -220 -6 -229 2 -3 3 -11 1 -19 -5 -7 -6 -13 -7 -13 -2 0 5 -14
8 -30 7 -17 -1 -30 1 -30 4 0 4 -33 8 -73 8 -104 2 -148 7 -154 17 -2 4 -11 3
-19 -4 -8 -6 -14 -7 -14 -2 0 5 -21 10 -47 12 -26 1 -52 6 -58 10 -5 4 -28 9
-49 10 -21 1 -48 7 -59 12 -15 9 -18 8 -12 -2 6 -8 4 -10 -5 -4 -12 8 -39 13
-85 18 -11 1 -22 5 -25 9 -3 4 -21 8 -40 9 -19 2 -40 6 -46 10 -6 5 -25 9 -42
11 -18 1 -32 6 -32 11 0 4 -4 5 -10 2 -5 -3 -10 -1 -10 4 0 6 -6 11 -13 11 -7
0 -20 8 -29 18 -26 27 -42 38 -81 57 -41 19 -107 28 -107 15 0 -5 -7 -7 -15
-4 -8 4 -15 1 -15 -6 0 -6 -5 -8 -11 -5 -5 4 -19 -1 -30 -11 -10 -9 -19 -14
-19 -11 0 7 -29 -14 -62 -46 -10 -9 -18 -15 -18 -12 0 2 -12 -7 -26 -20 -15
-14 -31 -25 -36 -25 -5 0 -7 -4 -3 -9 3 -5 -5 -18 -18 -28 -13 -10 -25 -22
-28 -28 -2 -5 -7 -9 -11 -8 -5 2 -8 -3 -8 -11 0 -8 -12 -27 -27 -43 -16 -16
-29 -35 -31 -43 -2 -8 -11 -26 -20 -40 -9 -14 -17 -29 -18 -35 -1 -5 -8 -23
-15 -40 -7 -16 -12 -33 -11 -37 1 -5 -3 -8 -10 -8 -6 0 -9 -3 -5 -6 3 -3 1
-18 -5 -33 -12 -30 -21 -69 -22 -93 0 -10 -5 -18 -10 -18 -5 0 -6 -3 -3 -7 4
-3 2 -12 -4 -20 -6 -7 -7 -13 -2 -13 14 0 9 -43 -5 -48 -7 -2 -10 -7 -7 -11 2
-4 5 -24 7 -44 1 -21 6 -37 11 -37 4 0 6 -4 3 -8 -7 -11 25 -73 35 -67 4 3 13
-4 19 -16 7 -11 14 -18 17 -15 3 3 14 -3 24 -15 12 -14 18 -16 22 -7 4 9 6 7
6 -4 1 -11 8 -16 21 -13 11 2 20 0 20 -4 0 -5 18 -8 40 -7 22 0 40 5 40 9 0 5
7 7 15 3 8 -3 15 -1 15 5 0 6 4 8 9 5 5 -3 14 1 21 9 7 8 16 13 20 10 5 -3 14
0 22 7 16 16 78 23 78 9 0 -5 -5 -13 -10 -16 -6 -4 -8 -11 -5 -16 4 -5 1 -9
-5 -9 -6 0 -9 -4 -6 -9 3 -5 -1 -12 -10 -15 -8 -3 -12 -10 -9 -16 3 -5 1 -10
-5 -10 -6 0 -8 -4 -5 -10 3 -5 1 -10 -6 -10 -6 0 -22 -12 -35 -27 -13 -16 -24
-25 -24 -21 0 6 -31 -17 -71 -55 -10 -9 -22 -18 -26 -19 -5 0 -24 -8 -43 -16
-19 -9 -44 -17 -54 -19 -11 -2 -25 -8 -31 -13 -7 -5 -15 -7 -18 -3 -4 3 -7 1
-7 -6 0 -7 -5 -9 -10 -6 -6 3 -13 -2 -16 -12 -3 -10 -11 -29 -17 -42 -9 -19
-9 -25 1 -28 6 -3 10 -9 6 -14 -3 -5 0 -9 6 -9 6 0 17 -6 24 -12 8 -7 24 -20
36 -28 12 -8 28 -21 36 -27 7 -7 17 -13 23 -13 6 0 11 -4 11 -10 0 -5 6 -7 14
-4 7 3 16 -2 20 -12 4 -11 10 -13 19 -6 6 5 20 8 30 7 9 -2 17 1 17 6 0 6 5 7
10 4 6 -3 10 2 10 11 0 10 3 14 7 11 3 -4 12 -2 20 5 7 6 16 8 19 6 10 -10
134 103 134 122 0 6 4 9 8 6 5 -3 15 5 23 16 8 12 22 28 31 36 9 9 15 19 12
24 -3 4 2 11 10 14 9 3 16 12 16 20 0 8 5 14 12 14 6 0 9 3 5 6 -3 3 3 22 14
41 11 19 17 38 14 44 -4 5 -2 9 3 9 5 0 12 14 16 31 3 19 10 28 17 23 6 -3 3
6 -7 22 -11 15 -13 25 -6 20 10 -6 11 -1 6 21 -4 15 -7 43 -7 61 0 17 -4 32
-9 32 -5 0 -6 5 -3 10 3 5 1 10 -5 10 -6 0 -8 5 -5 11 4 6 -13 30 -38 55 -25
24 -42 44 -39 44 13 0 -34 27 -56 33 -13 3 -37 -2 -55 -10 -60 -30 -67 -33
-81 -33 -8 0 -21 -6 -28 -12 -14 -14 -27 -18 -70 -26 -31 -5 -38 13 -16 37 9
10 9 12 1 7 -8 -4 -7 2 2 21 7 16 15 37 17 48 2 11 9 26 16 33 7 8 10 18 7 23
-4 5 -1 9 5 9 6 0 9 4 6 8 -4 7 37 77 64 109 5 7 10 16 10 21 0 5 27 37 61 72
34 34 56 59 49 55 -9 -5 -11 -4 -6 4 4 6 11 9 16 6 5 -3 15 1 23 9 8 8 17 12
21 9 3 -4 6 -1 6 4 0 6 8 10 18 8 9 -1 16 -8 14 -14 -1 -7 -4 -22 -6 -34 -3
-12 -5 -22 -6 -22 -1 0 -3 -7 -5 -15 -2 -8 -9 -28 -16 -45 -6 -16 -13 -36 -15
-44 -1 -8 -6 -17 -11 -20 -4 -3 -9 -13 -11 -21 -2 -8 -7 -16 -12 -18 -5 -2 -7
-9 -4 -17 3 -7 1 -16 -5 -20 -6 -3 -11 -20 -11 -37 0 -21 6 -31 20 -35 11 -3
20 -12 20 -20 0 -8 5 -11 12 -7 6 4 17 -1 25 -11 7 -11 13 -15 13 -11 0 4 14
-2 30 -14 l30 -21 28 29 c40 44 52 60 52 72 0 5 4 10 10 10 5 0 7 7 4 15 -4 8
-1 15 5 15 6 0 10 3 9 8 -1 4 4 27 11 52 7 25 14 50 15 55 1 6 6 16 10 24 7
10 5 12 -3 6 -10 -6 -11 -3 -1 15 7 12 10 33 7 46 -2 13 0 24 5 24 5 0 7 4 4
9 -10 15 5 42 18 33 6 -4 29 -10 51 -11 22 -2 48 -7 57 -12 9 -5 27 -9 41 -9
13 0 27 -3 31 -7 3 -4 14 -8 24 -10 27 -4 83 -12 137 -18 59 -8 90 -13 90 -15
0 -3 178 -20 237 -22 33 -2 44 -6 38 -14 -6 -6 -8 -13 -5 -16 3 -3 -4 -13 -15
-23 -11 -10 -20 -26 -20 -37 0 -10 -4 -18 -9 -18 -5 0 -12 -10 -16 -22 -4 -13
-9 -27 -10 -33 -2 -5 -6 -21 -9 -34 -3 -14 -11 -28 -18 -33 -8 -4 -8 -8 -2 -8
6 0 10 -10 8 -22 -1 -13 -3 -23 -4 -23 -1 0 -4 -11 -6 -25 -3 -14 -9 -27 -14
-28 -6 -2 -7 -9 -3 -15 4 -7 0 -8 -12 -3 -14 5 -16 4 -6 -8 9 -11 8 -15 -4
-20 -9 -3 -13 -2 -10 4 3 5 1 19 -5 30 -8 15 -8 18 3 14 8 -3 20 3 28 13 13
17 13 17 -5 3 -18 -14 -19 -13 -14 1 4 9 2 21 -4 27 -8 8 -8 16 2 27 7 8 8 15
4 15 -5 0 -9 23 -9 50 0 39 -3 51 -17 56 -10 3 -25 12 -33 20 -8 8 -23 17 -32
19 -10 2 -25 6 -35 10 -12 5 -25 -6 -48 -39 -17 -25 -27 -46 -23 -46 4 0 0 -5
-10 -11 -9 -6 -15 -14 -12 -18 2 -5 -3 -15 -12 -22 -11 -9 -14 -10 -9 -2 7 13
-10 54 -22 51 -4 -1 -14 2 -22 5 -34 13 -86 14 -98 1 -7 -8 -9 -14 -5 -14 4 0
0 -5 -9 -11 -10 -5 -18 -17 -18 -24 0 -8 -4 -15 -10 -15 -5 0 -9 -3 -9 -7 6
-36 -32 -44 -59 -13 -12 13 -13 13 -6 0 7 -13 5 -13 -9 -1 -9 7 -26 11 -36 8
-11 -3 -22 0 -24 6 -2 6 -14 7 -28 4 -22 -6 -25 -12 -27 -54 -3 -76 -6 -98
-17 -105 -6 -5 -5 -8 4 -8 11 0 11 -3 0 -17 -12 -15 -12 -16 1 -8 13 8 13 7 1
-9 -13 -15 -13 -19 0 -27 10 -6 11 -9 1 -9 -9 0 -10 -5 -4 -17 7 -11 6 -21 -3
-30 -7 -7 -11 -21 -8 -32 3 -10 0 -22 -6 -25 -7 -5 -8 -14 -2 -24 4 -9 7 -26
5 -37 -4 -26 15 -85 27 -85 6 0 17 -7 26 -15 8 -8 19 -13 24 -10 5 4 9 2 9 -4
0 -6 6 -8 14 -5 8 3 17 0 21 -5 3 -6 12 -8 18 -4 7 4 21 7 33 8 29 0 50 25 48
60 -1 41 13 59 33 40 8 -9 19 -13 24 -9 6 3 16 1 24 -6 19 -16 71 -16 92 1 15
12 16 12 9 -1 -4 -8 0 -6 8 4 9 11 16 28 16 37 0 10 6 20 13 22 9 4 9 6 -1 6
-10 1 -10 6 -2 21 14 26 37 26 45 0 4 -11 10 -18 15 -15 5 3 14 -1 22 -8 17
-16 84 -22 93 -8 3 6 11 9 16 6 5 -4 9 -1 9 5 0 6 5 8 11 5 6 -4 13 2 16 14 3
11 8 19 12 16 4 -2 15 9 25 26 18 31 52 39 74 17 7 -7 12 -8 12 -2 0 5 4 3 9
-5 14 -22 86 -16 124 11 17 12 34 26 35 30 2 4 10 8 18 8 9 0 12 5 9 10 -3 6
1 13 9 16 9 3 16 13 16 22 0 8 3 12 6 9 4 -4 15 8 25 26 9 17 22 31 28 30 6
-2 11 2 11 7 0 6 5 10 11 10 7 0 18 8 26 18 8 10 11 11 7 2 -7 -13 -5 -13 8
-2 14 11 20 11 37 0 12 -7 21 -19 21 -26 0 -7 5 -10 10 -7 6 3 10 1 10 -5 0
-6 5 -8 10 -5 6 3 10 -1 10 -9 0 -9 7 -17 15 -17 17 -2 34 -5 38 -9 8 -6 49
-5 53 2 3 4 10 5 16 2 7 -4 8 -2 4 4 -4 7 -2 12 4 12 6 0 8 5 5 10 -3 6 -1 10
5 10 6 0 9 4 5 9 -3 5 5 17 17 25 20 14 24 14 40 -1 14 -13 18 -13 18 -2 0 9
3 10 8 4 4 -6 14 -10 22 -9 8 0 24 2 35 2 11 1 33 13 49 27 16 14 33 25 38 25
4 0 8 6 8 13 0 33 68 58 78 29 2 -7 7 -10 12 -7 5 3 14 -1 22 -8 7 -7 20 -12
28 -12 8 1 21 -3 28 -8 8 -6 12 -6 12 2 0 6 13 9 30 7 16 -2 27 0 25 4 -5 8
24 24 38 22 4 -1 7 2 7 8 0 5 5 10 10 10 6 0 20 9 32 20 12 10 26 16 32 13 6
-3 8 -3 5 0 -3 4 16 30 42 58 27 29 46 56 43 60 -3 5 0 9 5 9 6 0 11 7 11 15
0 8 4 15 9 15 10 0 27 39 23 53 -1 4 3 7 9 7 5 0 8 4 4 9 -3 5 2 16 10 25 10
10 12 17 4 21 -6 4 -8 14 -5 22 3 8 2 12 -3 9 -15 -9 -20 19 -7 36 7 9 23 18
37 20 13 2 31 8 39 13 8 5 21 11 28 12 6 2 18 4 25 6 6 2 32 9 57 16 25 6 53
16 63 22 10 5 22 7 27 4 6 -4 10 -2 10 4 0 6 7 8 15 5 8 -4 15 -2 15 3 0 13
41 31 63 27 9 -1 17 2 17 8 0 6 7 8 15 4 8 -3 15 -1 15 4 0 6 9 10 21 10 11 0
32 9 46 20 14 11 34 20 44 20 11 0 19 4 19 8 0 5 12 14 26 20 14 7 23 8 19 2
-3 -6 1 -7 9 -4 9 3 13 10 10 15 -3 5 2 6 11 2 12 -4 13 -8 5 -13 -6 -4 -11
-11 -11 -16 2 -21 -11 -44 -25 -44 -8 0 -13 -4 -10 -9 8 -12 -29 -43 -39 -34
-4 5 -5 2 -1 -4 5 -8 -6 -21 -28 -34 -20 -12 -36 -25 -36 -31 0 -5 -4 -7 -9
-3 -6 3 -20 -5 -32 -17 -12 -13 -18 -16 -14 -9 5 9 -3 7 -21 -6 -25 -17 -57
-32 -86 -39 -5 -1 -10 -3 -13 -4 -6 -3 -12 -5 -43 -15 -12 -4 -21 -12 -20 -19
1 -6 -5 -25 -14 -42 -16 -29 -16 -31 5 -47 12 -9 26 -15 30 -14 5 1 15 -9 22
-23 7 -14 16 -24 19 -22 14 5 27 1 22 -7 -3 -5 5 -12 19 -15 14 -4 25 -11 25
-17 0 -6 5 -7 10 -4 6 3 10 2 10 -3 0 -10 36 -9 46 1 4 4 16 7 26 7 10 0 18 5
18 11 0 5 5 7 10 4 6 -3 10 -1 10 4 0 6 3 10 8 10 19 -3 33 3 55 25 14 14 28
22 31 19 3 -3 8 2 12 11 3 9 12 16 19 16 7 0 15 9 18 20 3 11 13 20 22 20 9 0
14 4 10 9 -3 5 4 13 16 16 17 6 19 9 8 16 -10 6 -10 9 -2 9 16 0 54 41 47 52
-3 4 2 8 10 8 9 0 16 7 16 15 0 8 4 15 9 15 5 0 15 16 21 35 6 19 15 35 20 35
4 0 8 6 7 13 -1 48 4 77 14 71 8 -4 8 -1 2 12 -6 11 -9 48 -9 83 2 54 5 65 21
71 11 4 23 6 28 3 4 -2 7 1 7 6 0 6 5 11 11 11 5 0 8 -4 5 -9 -4 -5 0 -12 6
-14 10 -4 9 -8 -2 -16 -13 -10 -13 -11 0 -11 12 0 12 -2 1 -9 -9 -6 -10 -11
-2 -15 6 -4 11 -12 11 -17 0 -6 -5 -7 -11 -3 -8 5 -8 1 0 -13 6 -11 8 -23 5
-25 -2 -3 -5 -35 -5 -71 -1 -88 17 -114 96 -142 27 -10 65 -12 65 -4 0 4 11
10 25 13 14 4 23 11 20 16 -3 6 -3 16 2 23 11 18 10 71 -2 79 -6 5 -5 8 3 8 7
0 10 5 6 11 -3 6 0 15 7 20 21 13 32 11 25 -7 -3 -8 -2 -12 4 -9 6 3 10 -1 10
-9 0 -9 5 -16 11 -16 5 0 7 -4 4 -10 -3 -5 1 -10 9 -10 9 0 16 -4 16 -9 0 -13
101 -10 137 5 18 8 33 17 33 20 0 3 -5 2 -11 -2 -7 -4 6 12 28 35 46 47 49 47
83 24 24 -17 45 -24 65 -24 31 1 68 11 80 21 8 7 15 9 15 6 0 -4 25 18 55 49
30 31 55 61 55 67 0 13 47 58 60 58 14 0 21 -18 20 -48 -3 -99 -5 -118 -14
-124 -7 -5 -6 -8 3 -8 11 0 11 -3 0 -17 -12 -15 -12 -16 1 -8 12 6 12 5 3 -5
-6 -7 -9 -19 -6 -26 3 -8 1 -14 -3 -14 -5 0 -9 -20 -8 -45 0 -26 -4 -45 -10
-45 -6 0 -4 -5 4 -10 8 -5 10 -10 4 -10 -10 0 -17 -53 -17 -148 0 -40 4 -56
19 -66 15 -11 22 -12 33 -3 12 10 13 9 6 -3 -8 -13 -7 -13 8 -1 9 7 17 10 17
5 0 -5 5 -1 11 9 5 9 17 17 25 17 16 0 30 10 75 54 30 30 37 46 18 46 -8 0 -8
5 1 15 7 8 10 22 6 30 -3 8 -2 15 3 15 4 0 5 23 1 50 -4 28 -4 50 -1 50 4 0 6
29 6 65 0 38 4 65 10 65 6 0 6 3 -1 8 -9 6 -12 85 -3 102 1 3 3 12 3 20 1 8 9
14 19 14 9 -1 14 2 11 7 -3 5 0 9 5 9 6 0 11 -5 11 -11 0 -5 5 -7 10 -4 6 3
10 2 10 -3 0 -10 54 -8 104 3 27 5 106 79 106 98 0 5 4 6 9 2 5 -3 12 4 16 15
3 11 11 20 16 20 5 0 9 7 9 15 0 8 5 15 12 15 6 0 9 3 5 6 -6 6 0 15 33 53 8
9 16 26 18 36 2 11 6 32 9 48 3 17 1 27 -7 27 -7 0 -10 6 -7 14 8 20 -20 55
-43 53 -11 -1 -20 -5 -20 -9 0 -4 0 -10 0 -13 0 -9 -45 -50 -52 -48 -4 2 -5
-3 -2 -11 3 -7 -2 -16 -10 -19 -17 -7 -17 -5 -20 53 0 19 -4 40 -9 47 -4 6 -3
14 3 18 6 4 7 12 3 18 -4 7 -8 18 -9 25 -2 8 -4 15 -6 16 -60 46 -96 64 -108
53 -10 -9 -11 -9 -6 1 12 21 -12 13 -39 -14 -14 -14 -38 -44 -52 -67 l-26 -41
-18 23 c-11 13 -19 21 -19 17 0 -3 -20 3 -45 14 -29 12 -45 15 -45 8 0 -6 -3
-8 -7 -5 -3 4 -12 -1 -19 -11 -9 -13 -10 -20 -1 -31 9 -11 9 -13 0 -8 -11 7
-13 2 -13 -48 0 -11 0 -31 -1 -45 -1 -14 -2 -38 -3 -55 0 -16 -5 -36 -10 -44
-7 -10 -5 -12 5 -6 8 4 4 -2 -8 -14 -26 -25 -39 -27 -47 -6 -3 8 0 15 7 15 8
0 9 2 1 8 -6 4 -10 15 -8 25 1 9 -2 17 -7 17 -6 0 -8 4 -5 9 3 4 -10 16 -29
27 -18 10 -32 21 -29 25 2 4 -10 10 -27 14 -17 4 -33 13 -36 22 -3 8 -12 12
-19 9 -8 -3 -14 -2 -14 3 0 5 -11 11 -25 13 -13 3 -23 2 -21 -1 6 -9 -21 -31
-28 -24 -3 4 -6 -1 -6 -10 0 -10 -3 -16 -7 -16 -18 3 -36 -1 -30 -7 3 -3 -7
-19 -21 -36 -15 -17 -26 -34 -25 -39 2 -5 -2 -9 -7 -9 -6 0 -10 -5 -10 -11 0
-5 6 -7 13 -4 6 4 4 0 -6 -8 -10 -9 -21 -28 -23 -44 -18 -120 -18 -120 -38
-142 -10 -11 -15 -25 -11 -30 3 -6 0 -11 -8 -11 -8 0 -18 -8 -21 -17 -13 -34
-24 8 -19 71 9 108 5 175 -11 198 -14 20 -13 23 35 59 27 20 61 49 74 63 14
15 25 24 25 20 0 -4 15 9 34 28 19 20 37 34 40 31 2 -2 7 4 10 14 3 10 20 26
37 35 16 10 28 22 25 26 -6 10 30 43 38 35 6 -6 10 12 7 30 0 4 3 7 9 7 12 0
70 56 70 69 0 5 7 12 16 15 8 3 12 11 9 16 -4 6 -3 9 2 8 12 -4 53 34 53 49 0
7 5 13 12 13 6 0 8 3 4 7 -3 4 4 13 16 20 15 8 17 12 8 13 -10 0 -5 9 14 25
16 14 26 25 21 25 -4 0 3 10 17 23 13 12 22 29 20 36 -3 8 -1 11 4 8 10 -6 36
18 28 26 -3 3 2 13 10 24 17 19 21 34 10 32 -4 0 -10 4 -14 10 -3 6 -10 8 -13
4z m-761 -395 c4 -7 3 -8 -4 -4 -7 4 -12 2 -12 -5 0 -7 -3 -10 -6 -6 -6 5 3
27 11 27 2 0 7 -5 11 -12z m-401 -76 c1 -12 -2 -22 -6 -22 -4 0 -8 -8 -8 -17
-2 -45 -6 -63 -13 -63 -4 0 -8 -5 -8 -10 0 -15 -43 -105 -52 -108 -4 -2 -8
-10 -8 -18 0 -8 -4 -14 -10 -14 -5 0 -7 -7 -4 -15 4 -9 1 -15 -7 -15 -10 0
-10 -3 -1 -12 8 -8 8 -17 1 -31 -7 -12 -7 -17 -1 -13 5 3 12 -1 16 -9 3 -8 15
-15 26 -15 11 0 20 -5 20 -11 0 -5 5 -7 10 -4 6 3 10 1 10 -6 0 -7 3 -9 7 -6
3 4 15 0 25 -10 10 -9 18 -11 18 -5 0 6 7 9 15 6 18 -7 47 14 39 27 -3 5 -1 9
5 9 5 0 8 9 6 20 -2 11 0 18 4 15 5 -3 12 2 15 11 4 10 2 13 -7 8 -9 -5 -9 -4
1 7 15 16 16 33 0 23 -7 -5 -8 -3 -4 5 5 7 15 10 23 6 14 -5 14 -3 2 12 -12
15 -12 16 5 10 14 -6 16 -4 9 5 -5 7 -8 19 -7 26 1 6 2 17 3 23 0 5 7 7 14 3
8 -5 8 -2 -2 9 -9 12 -10 17 -2 17 6 0 15 -8 18 -17 4 -10 11 -21 17 -25 7 -5
6 -8 -3 -8 -11 0 -11 -3 -1 -15 7 -8 8 -15 2 -15 -5 0 -9 -18 -9 -39 0 -22 -5
-46 -11 -54 -7 -7 -9 -17 -5 -20 11 -12 8 -64 -4 -64 -7 0 -10 4 -7 9 3 4 1 8
-5 8 -5 0 -13 -4 -16 -10 -3 -5 -17 -10 -31 -10 -15 0 -24 -6 -24 -15 0 -8 -7
-15 -15 -15 -8 0 -14 -5 -12 -12 5 -24 -29 -18 -60 11 -33 30 -70 47 -88 42
-5 -2 -18 -5 -29 -7 -10 -2 -24 -8 -32 -15 -8 -6 -14 -8 -14 -4 0 4 -7 1 -16
-6 -9 -7 -27 -15 -39 -16 -13 -2 -36 -10 -50 -17 -30 -16 -65 -10 -65 10 0 8
5 14 12 14 6 0 9 3 5 6 -3 3 1 23 8 44 7 21 11 41 8 44 -4 3 -1 6 6 6 7 0 9 5
6 10 -3 6 -1 10 4 10 6 0 10 4 9 8 -5 13 35 85 60 109 12 12 22 27 22 33 0 6
7 13 15 16 8 4 15 10 15 15 0 4 14 22 30 39 17 17 30 35 30 41 0 6 5 7 10 4 6
-3 10 1 10 10 0 9 5 13 10 10 6 -3 10 -1 10 5 0 12 11 24 44 50 18 13 19 13
13 0 -4 -8 -2 -7 5 3 16 22 31 17 33 -11z m177 -114 c2 -13 -4 -29 -12 -36 -8
-8 -10 -11 -3 -8 16 8 28 -13 14 -25 -6 -5 -9 -6 -6 -3 2 4 -6 15 -18 25 -17
14 -19 18 -6 19 12 0 15 7 11 25 -2 14 0 25 6 25 6 0 12 -10 14 -22z m299 -24
c11 -14 10 -18 -6 -30 -10 -8 -13 -14 -7 -14 7 0 12 -5 12 -11 0 -5 -4 -8 -9
-5 -9 6 -26 -22 -23 -36 3 -13 -16 -9 -22 5 -3 6 -3 0 0 -15 4 -18 2 -28 -6
-28 -6 0 -8 -4 -5 -10 3 -5 -1 -10 -9 -10 -8 0 -20 -9 -26 -20 -6 -12 -16 -18
-23 -13 -8 5 -8 8 1 11 7 2 10 8 6 13 -3 5 0 9 6 9 6 0 8 5 5 10 -3 6 -1 10 4
10 6 0 10 3 9 8 -4 13 13 52 23 52 5 0 9 5 9 11 0 7 8 18 18 26 11 10 12 12 2
8 -10 -4 -9 -2 3 8 19 16 24 32 5 21 -7 -4 -8 -3 -4 4 10 16 21 15 37 -4z
m-80 -351 c8 -10 9 -14 2 -10 -7 5 -12 1 -13 -10 -1 -44 -5 -61 -12 -57 -8 5
-6 44 3 44 3 0 4 11 1 25 -5 29 0 32 19 8z m433 -9 c3 -8 2 -12 -4 -9 -6 3
-10 10 -10 16 0 14 7 11 14 -7z m-949 -64 c-3 -5 -2 -10 4 -10 5 0 8 -10 6
-21 -5 -25 -15 -38 -15 -20 0 7 -5 9 -12 5 -7 -5 -8 -3 -3 6 6 10 4 12 -8 7
-10 -4 -17 -2 -17 4 0 7 9 9 21 6 14 -4 19 -2 15 8 -2 7 -2 16 1 19 10 10 15
7 8 -4z m-1381 -8 c3 -5 -1 -9 -9 -9 -8 0 -12 4 -9 9 3 4 7 8 9 8 2 0 6 -4 9
-8z m1876 -22 c0 -5 -5 -10 -11 -10 -5 0 -7 5 -4 10 3 6 8 10 11 10 2 0 4 -4
4 -10z m10 -99 c0 -5 -7 -12 -16 -15 -14 -5 -15 -4 -4 9 14 17 20 19 20 6z
m-1850 -175 c0 -8 -7 -17 -16 -20 -13 -5 -14 -4 -6 7 7 8 9 17 5 20 -3 4 -1 7
5 7 7 0 12 -6 12 -14z m407 -10 c-3 -7 0 -19 6 -26 9 -9 7 -9 -9 0 -17 10 -19
16 -10 26 15 17 19 17 13 0z m-7 -46 c0 -5 -5 -10 -11 -10 -5 0 -7 5 -4 10 3
6 8 10 11 10 2 0 4 -4 4 -10z m155 0 c-3 -5 3 -18 15 -30 11 -11 15 -20 9 -20
-5 0 -17 -16 -25 -35 -8 -19 -19 -35 -26 -35 -6 0 -9 -3 -5 -6 3 -4 -1 -13 -9
-22 -11 -11 -18 -12 -26 -4 -8 8 -1 21 26 47 21 20 36 39 32 42 -3 3 -1 12 4
18 8 9 6 14 -6 19 -13 5 -14 9 -4 21 14 17 25 20 15 5z m-864 -152 c12 -19 11
-30 -2 -22 -7 4 -7 -1 1 -16 8 -15 9 -25 2 -29 -7 -4 -7 -12 -2 -20 11 -18 -7
-68 -27 -75 -12 -5 -14 -1 -11 19 3 13 1 22 -4 19 -6 -4 -8 6 -5 22 3 17 -1
34 -9 42 -8 7 -15 11 -16 10 -2 -2 -18 11 -35 28 l-33 31 67 2 c45 1 69 -2 74
-11z m794 -9 c4 -6 -2 -13 -14 -16 -11 -3 -18 -10 -14 -16 3 -6 1 -7 -5 -3 -9
5 -8 12 1 26 13 22 23 25 32 9z"/>
<path d="M5386 3098 c5 -8 2 -9 -10 -5 -12 5 -15 3 -10 -6 5 -9 4 -9 -6 0 -7
7 -21 9 -34 4 -11 -4 -28 -7 -36 -6 -8 0 -21 -6 -28 -15 -8 -8 -11 -9 -7 -2 3
6 1 12 -5 12 -6 0 -13 -7 -16 -15 -5 -13 -9 -13 -21 -3 -12 10 -17 9 -27 -2
-6 -8 -20 -15 -31 -14 -11 0 -27 -3 -36 -7 -16 -8 -73 -21 -96 -22 -7 0 -13
-4 -13 -9 0 -5 -4 -6 -10 -3 -13 8 -61 -25 -53 -38 3 -5 1 -7 -4 -4 -6 4 -17
-1 -24 -10 -10 -12 -10 -14 -1 -9 8 5 12 0 11 -16 0 -13 -3 -17 -6 -10 -2 6
-11 12 -19 12 -8 0 -14 5 -14 11 0 5 -4 8 -9 4 -5 -3 -12 -1 -16 5 -4 6 -11 8
-16 5 -5 -4 -9 -1 -9 4 0 6 -6 10 -12 9 -7 -2 -12 3 -10 10 2 13 -55 17 -74 4
-33 -21 37 -139 118 -197 14 -10 22 -13 56 -18 9 -1 22 -5 27 -9 14 -8 118 -5
133 5 6 5 12 6 12 2 0 -3 10 0 23 7 12 7 25 11 30 10 4 -1 7 5 7 13 0 8 7 15
16 15 10 0 14 5 10 16 -3 8 -2 13 3 10 5 -3 11 1 15 9 5 15 -10 20 -44 15 -8
-1 -3 7 12 19 14 12 31 21 37 21 6 0 10 3 10 8 -3 19 2 33 11 27 6 -3 10 -2
10 3 0 5 14 15 30 22 17 7 30 16 30 21 0 5 6 9 14 9 8 0 16 7 20 15 3 8 12 15
20 15 10 0 13 6 10 15 -4 8 -1 15 6 15 6 0 8 5 4 12 -5 8 -2 9 10 5 9 -4 15
-3 11 2 -3 6 2 14 11 19 15 8 15 10 0 15 -12 5 -15 3 -10 -5z m-411 -206 c-3
-3 -11 0 -18 7 -9 10 -8 11 6 5 10 -3 15 -9 12 -12z m79 -38 c3 -8 2 -12 -4
-9 -6 3 -10 10 -10 16 0 14 7 11 14 -7z m71 4 c5 4 5 1 1 -6 -6 -10 -11 -10
-22 -1 -11 9 -14 9 -14 0 0 -7 -5 -9 -11 -5 -8 4 -7 9 2 15 7 4 18 4 25 -1 6
-6 15 -6 19 -2z"/>
<path d="M4476 2841 c-4 -6 -18 -11 -32 -11 -13 0 -24 -6 -24 -12 0 -10 -3 -9
-9 1 -6 9 -10 10 -12 2 -3 -7 -14 -13 -27 -14 -12 0 -22 -4 -22 -8 0 -3 -13
-5 -30 -4 -17 1 -27 -2 -23 -8 4 -6 -4 -7 -21 -3 -15 4 -25 3 -23 -2 3 -4 -22
-8 -56 -9 -99 -1 -127 -9 -97 -28 6 -3 10 -2 10 3 0 4 23 6 50 2 28 -4 50 -2
50 2 0 5 5 6 12 2 16 -10 71 -9 88 1 8 5 15 5 17 -1 2 -5 29 -8 60 -6 32 2 77
4 101 4 23 0 42 5 42 10 0 6 7 8 15 4 8 -3 15 -1 15 4 0 6 5 10 11 10 5 0 7
-5 3 -12 -5 -7 -3 -8 6 -3 10 6 8 12 -8 26 -15 12 -18 19 -10 22 8 4 7 6 -3 6
-9 1 -20 8 -23 17 -5 12 -10 13 -19 5 -10 -7 -17 -7 -24 0 -8 8 -13 8 -17 0z"/>
</g>
</svg>
